<?xml version="1.0" encoding="iso-8859-1"?>
<!-- Generator: Adobe Illustrator 18.1.1, SVG Export Plug-In . SVG Version: 6.00 Build 0)  -->
<!DOCTYPE svg PUBLIC "-//W3C//DTD SVG 1.1//EN" "http://www.w3.org/Graphics/SVG/1.1/DTD/svg11.dtd">
<svg version="1.1" xmlns="http://www.w3.org/2000/svg" xmlns:xlink="http://www.w3.org/1999/xlink" x="0px" y="0px"
	 viewBox="0 0 15.171 22.333" style="enable-background:new 0 0 15.171 22.333;" xml:space="preserve">
<g id="bear">
	<g>
		<g>
			<g>
				<path style="fill:none;" d="M12.056,16.972C12,16.972,11.973,17,11.917,17C11.973,17,12,17,12.056,16.972z"/>
			</g>
		</g>
		<g>
			<g>
				<path style="fill:none;" d="M12.278,16.944c-0.056,0-0.083,0.028-0.139,0.028C12.167,16.944,12.223,16.944,12.278,16.944z"/>
			</g>
		</g>
		<g>
			<g>
				<path style="fill:none;" d="M12.473,16.861c-0.056,0.028-0.111,0.028-0.167,0.056C12.362,16.917,12.417,16.889,12.473,16.861z"
					/>
			</g>
		</g>
		<g>
			<g>
				<path style="fill:none;" d="M9.973,15.778c0.028,0,0.056,0,0.083-0.028C10.028,15.75,10,15.75,9.973,15.778z"/>
			</g>
		</g>
		<g>
			<g>
				<path style="fill:none;" d="M11.056,17.056c-0.083,0-0.194,0-0.306-0.028C10.862,17.056,10.973,17.056,11.056,17.056z"/>
			</g>
		</g>
		<g>
			<g>
				<path style="fill:none;" d="M11.612,17.056c-0.056,0-0.111,0-0.167,0C11.5,17.056,11.556,17.056,11.612,17.056z"/>
			</g>
		</g>
		<g>
			<g>
				<path style="fill:none;" d="M11.834,17.028c-0.056,0-0.111,0-0.139,0.028C11.75,17.028,11.778,17.028,11.834,17.028z"/>
			</g>
		</g>
		<g>
			<g>
				<path style="fill:none;" d="M11.334,17.056c-0.056,0-0.111,0-0.194,0C11.223,17.056,11.278,17.056,11.334,17.056z"/>
			</g>
		</g>
		<g>
			<g>
				<path style="fill:none;" d="M9.917,19.333h0.028C9.945,19.333,9.945,19.333,9.917,19.333z"/>
			</g>
		</g>
		<g>
			<g>
				<path style="fill:none;" d="M9.639,19.333c-0.111,0-0.222,0-0.361,0C9.389,19.333,9.5,19.333,9.639,19.333z"/>
			</g>
		</g>
		<g>
			<g>
				<path style="fill:#C6CCD6;" d="M9.945,19.333c0.222,0,0.417-0.028,0.611-0.056l0,0C10.389,19.306,10.167,19.333,9.945,19.333z"
					/>
			</g>
		</g>
		<g>
			<g>
				<path style="fill:#C6CCD6;" d="M9.917,19.333c-0.083,0-0.194,0-0.306,0C9.723,19.333,9.834,19.333,9.917,19.333z"/>
			</g>
		</g>
		<g>
			<g>
				<path style="fill:#C6CCD6;" d="M12.306,16.917h-0.028H12.306z"/>
			</g>
		</g>
		<g>
			<g>
				<path style="fill:#C6CCD6;" d="M12.112,16.972c-0.028,0-0.028,0-0.056,0C12.084,16.972,12.112,16.972,12.112,16.972z"/>
			</g>
		</g>
		<g>
			<g>
				<path style="fill:#C6CCD6;" d="M11.445,17.056c-0.028,0-0.056,0-0.111,0C11.362,17.056,11.417,17.056,11.445,17.056z"/>
			</g>
		</g>
		<g>
			<g>
				<path style="fill:#C6CCD6;" d="M11.695,17.028c-0.028,0-0.056,0-0.083,0C11.639,17.056,11.667,17.028,11.695,17.028z"/>
			</g>
		</g>
		<g>
			<g>
				<path style="fill:#C6CCD6;" d="M9.556,15.833c0.139-0.028,0.278-0.056,0.417-0.083C9.834,15.806,9.695,15.833,9.556,15.833z"/>
			</g>
		</g>
		<g>
			<g>
				<path style="fill:#C6CCD6;" d="M12.473,16.861L12.473,16.861L12.473,16.861z"/>
			</g>
		</g>
		<g>
			<g>
				<path style="fill:#C6CCD6;" d="M11.167,17.056c-0.028,0-0.056,0-0.083,0C11.084,17.056,11.112,17.056,11.167,17.056z"/>
			</g>
		</g>
		<g>
			<g>
				<path style="fill:#C6CCD6;" d="M10.056,15.75c1.056-0.222,2-0.556,2.778-1l0,0C12.056,15.194,11.112,15.528,10.056,15.75z"/>
			</g>
		</g>
		<g>
			<g>
				<path style="fill:#C6CCD6;" d="M11.917,17c-0.028,0-0.056,0-0.083,0C11.862,17.028,11.889,17,11.917,17z"/>
			</g>
		</g>
		<g>
			<g>
				<path style="fill:#918BC1;" d="M4.056,15.5c-0.028,0-0.028,0-0.056,0C4.028,15.5,4.028,15.5,4.056,15.5z"/>
			</g>
		</g>
		<g>
			<g>
				<path style="fill:#918BC1;" d="M4.862,15.722c-0.028,0-0.056,0-0.083-0.028C4.806,15.694,4.834,15.694,4.862,15.722z"/>
			</g>
		</g>
		<g>
			<g>
				<path style="fill:#918BC1;" d="M2.278,14.75c0.5,0.306,1.083,0.556,1.722,0.75C3.362,15.278,2.778,15.028,2.278,14.75
					L2.278,14.75z"/>
			</g>
		</g>
		<g>
			<g>
				<path style="fill:#918BC1;" d="M4.778,15.694c-0.25-0.056-0.5-0.111-0.75-0.194C4.278,15.556,4.528,15.639,4.778,15.694z"/>
			</g>
		</g>
		<g>
			<g>
				<path style="fill:#918BC1;" d="M5.25,15.778C5.112,15.75,5,15.722,4.862,15.694C5,15.75,5.112,15.778,5.25,15.778z"/>
			</g>
		</g>
		<g>
			<g>
				<g>
					<g>
						<rect x="4.5" y="18.722" style="fill:#695A42;" width="2.556" height="2.778"/>
					</g>
				</g>
				<g>
					<g>
						<rect x="8.278" y="18.722" style="fill:#877B58;" width="2.556" height="2.778"/>
					</g>
				</g>
				<g>
					<g>
						<path style="fill:#695A42;" d="M5.778,20.528c-1,0-1.806,0.806-1.806,1.806h3.611C7.584,21.333,6.778,20.528,5.778,20.528z"/>
					</g>
				</g>
				<g>
					<g>
						<path style="fill:#877B58;" d="M9.556,20.528c-1,0-1.806,0.806-1.806,1.806h3.611C11.362,21.333,10.556,20.528,9.556,20.528z"
							/>
					</g>
				</g>
			</g>
			<g>
				<g>
					<g>
						<path style="fill:#695A42;" d="M2.362,14.417c-0.167,0.5-0.278,1.028-0.278,1.556c0,2.778,2.444,5.056,5.5,5.056v-4.222
							C5.389,16.806,3.445,15.861,2.362,14.417z"/>
					</g>
				</g>
				<g>
					<g>
						<path style="fill:#877B58;" d="M7.584,16.806v4.222c3.028,0,5.5-2.25,5.5-5.056c0-0.556-0.083-1.083-0.278-1.556
							C11.723,15.861,9.778,16.806,7.584,16.806z"/>
					</g>
				</g>
				<g>
					<g>
						<path style="fill:#695A42;" d="M7.584,10.944c-2.444,0-4.5,1.472-5.222,3.472c1.083,1.444,3,2.389,5.222,2.389
							c2.194,0,4.139-0.944,5.222-2.389C12.084,12.389,10.028,10.944,7.584,10.944z"/>
					</g>
				</g>
			</g>
		</g>
		<g>
			<g>
				<g>
					<path style="fill:#F6F3CF;" d="M5.362,17.5c0,0,0.028,0,0.056,0.028c0.028,0,0.083,0.028,0.139,0.028
						c0.139,0.028,0.306,0.056,0.472,0.083c0.056,0,0.083,0,0.139,0c0.056,0,0.083,0,0.139,0c0.083,0,0.167,0,0.222,0
						c0.139-0.028,0.222-0.028,0.222-0.028s-0.083,0.056-0.222,0.111c-0.056,0.028-0.139,0.056-0.222,0.083
						c-0.056,0-0.083,0.028-0.139,0.028c-0.056,0-0.083,0.028-0.139,0.028c-0.194,0.028-0.389,0.056-0.528,0.083
						c-0.083,0-0.139,0-0.167,0s-0.056,0-0.056,0c-0.139,0-0.25-0.083-0.25-0.222s0.083-0.25,0.222-0.25
						C5.306,17.472,5.334,17.472,5.362,17.5L5.362,17.5z"/>
				</g>
				<g>
					<path style="fill:#F6F3CF;" d="M5.362,18.028c0,0,0.028,0,0.056,0.028c0.028,0,0.083,0.028,0.139,0.028
						c0.139,0.028,0.306,0.056,0.472,0.083c0.056,0,0.083,0,0.139,0c0.056,0,0.083,0,0.139,0c0.083,0,0.167,0,0.222,0
						c0.139-0.028,0.222-0.028,0.222-0.028s-0.083,0.056-0.222,0.111c-0.056,0.028-0.139,0.056-0.222,0.083
						c-0.056,0-0.083,0.028-0.139,0.028c-0.056,0-0.083,0.028-0.139,0.028c-0.194,0.028-0.389,0.056-0.528,0.083
						c-0.083,0-0.139,0-0.167,0s-0.056,0-0.056,0c-0.139,0-0.25-0.083-0.25-0.222c0-0.139,0.083-0.25,0.222-0.25
						C5.306,18.028,5.334,18.028,5.362,18.028L5.362,18.028z"/>
				</g>
				<g>
					<path style="fill:#F6F3CF;" d="M5.417,18.472c0,0,0.028,0,0.056,0.028s0.083,0.028,0.139,0.056
						c0.111,0.056,0.278,0.111,0.444,0.167c0.056,0.028,0.083,0.028,0.139,0.028c0.056,0,0.083,0.028,0.139,0.028
						c0.083,0.028,0.167,0.028,0.222,0.028c0.139,0,0.222,0,0.222,0s-0.083,0.028-0.222,0.056c-0.083,0-0.139,0.028-0.25,0.028
						c-0.056,0-0.083,0-0.139,0c-0.056,0-0.083,0-0.139,0c-0.194,0-0.389,0-0.528-0.028c-0.083,0-0.139-0.028-0.167-0.028
						s-0.056,0-0.056,0c-0.139-0.028-0.222-0.139-0.194-0.278c0.028-0.139,0.139-0.222,0.278-0.194
						C5.362,18.444,5.389,18.444,5.417,18.472L5.417,18.472z"/>
				</g>
				<g>
					<path style="fill:#F6F3CF;" d="M5.195,18.889c0,0,0.028,0.028,0.056,0.028C5.278,18.944,5.334,18.972,5.362,19
						c0.111,0.083,0.25,0.194,0.417,0.278c0.028,0.028,0.083,0.056,0.111,0.056C5.917,19.361,5.973,19.389,6,19.389
						c0.083,0.028,0.139,0.056,0.222,0.083c0.139,0.028,0.222,0.056,0.222,0.056s-0.083,0-0.222,0c-0.083,0-0.167,0-0.25-0.028
						c-0.056,0-0.083-0.028-0.139-0.028s-0.083-0.028-0.139-0.028c-0.194-0.056-0.361-0.083-0.5-0.139
						c-0.056-0.028-0.139-0.056-0.167-0.056C5,19.222,4.973,19.222,4.973,19.222c-0.111-0.056-0.194-0.194-0.139-0.306
						c0.056-0.139,0.194-0.194,0.306-0.139C5.139,18.861,5.167,18.861,5.195,18.889L5.195,18.889z"/>
				</g>
				<g>
					<path style="fill:#695A42;" d="M4.362,19.444c-0.111,0-0.222-0.028-0.333-0.056C2.556,19,1.889,18.139,1.5,17.556
						c-1.028-1.528-0.5-3.778-0.444-3.944l2.583,1.028l0,0c-0.194,0.75,0.167,2.028,1.056,2.278
						c0.667,0.194,1.083,0.889,0.889,1.556C5.417,19.083,4.917,19.444,4.362,19.444z"/>
				</g>
			</g>
			<g>
				<g>
					<path style="fill:#F6F3CF;" d="M9.806,17.5c0,0-0.028,0-0.056,0.028c-0.028,0-0.083,0.028-0.139,0.028
						c-0.139,0.028-0.306,0.056-0.472,0.083c-0.056,0-0.083,0-0.139,0c-0.056,0-0.083,0-0.139,0c-0.083,0-0.167,0-0.222,0
						c-0.139-0.028-0.222-0.028-0.222-0.028s0.083,0.056,0.222,0.111c0.056,0.028,0.139,0.056,0.222,0.083
						c0.056,0,0.083,0.028,0.139,0.028c0.056,0,0.083,0.028,0.139,0.028c0.194,0.028,0.389,0.056,0.528,0.083
						c0.083,0,0.139,0,0.167,0s0.056,0,0.056,0c0.139,0,0.25-0.083,0.25-0.222s-0.083-0.25-0.222-0.25
						C9.862,17.472,9.834,17.472,9.806,17.5L9.806,17.5z"/>
				</g>
				<g>
					<path style="fill:#F6F3CF;" d="M9.806,18.028c0,0-0.028,0-0.056,0.028c-0.028,0-0.083,0.028-0.139,0.028
						c-0.139,0.028-0.306,0.056-0.472,0.083c-0.056,0-0.083,0-0.139,0c-0.056,0-0.083,0-0.139,0c-0.083,0-0.167,0-0.222,0
						c-0.139-0.028-0.222-0.028-0.222-0.028S8.5,18.194,8.639,18.25c0.056,0.028,0.139,0.056,0.222,0.083
						c0.056,0,0.083,0.028,0.139,0.028c0.056,0,0.083,0.028,0.139,0.028c0.194,0.028,0.389,0.056,0.528,0.083
						c0.083,0,0.139,0,0.167,0s0.056,0,0.056,0c0.139,0,0.25-0.083,0.25-0.222c0-0.139-0.083-0.25-0.222-0.25
						C9.862,18.028,9.834,18.028,9.806,18.028L9.806,18.028z"/>
				</g>
				<g>
					<path style="fill:#F6F3CF;" d="M9.75,18.472c0,0-0.028,0-0.056,0.028s-0.083,0.028-0.139,0.056
						c-0.111,0.056-0.278,0.111-0.444,0.167C9.056,18.75,9.028,18.75,8.973,18.75c-0.056,0-0.083,0.028-0.139,0.028
						c-0.083,0.028-0.167,0.028-0.222,0.028c-0.139,0-0.222,0-0.222,0s0.083,0.028,0.222,0.056c0.083,0,0.139,0.028,0.25,0.028
						c0.056,0,0.083,0,0.139,0c0.056,0,0.083,0,0.139,0c0.194,0,0.389,0,0.528-0.028c0.083,0,0.139-0.028,0.167-0.028
						s0.056,0,0.056,0c0.139-0.028,0.222-0.139,0.194-0.278c-0.028-0.139-0.139-0.222-0.278-0.194
						C9.806,18.444,9.778,18.444,9.75,18.472L9.75,18.472z"/>
				</g>
				<g>
					<path style="fill:#F6F3CF;" d="M9.973,18.889c0,0-0.028,0.028-0.056,0.028C9.889,18.944,9.834,18.972,9.806,19
						c-0.111,0.083-0.25,0.194-0.417,0.278c-0.028,0.028-0.083,0.056-0.111,0.056c-0.028,0.028-0.083,0.056-0.111,0.056
						c-0.083,0.028-0.139,0.056-0.222,0.083c-0.139,0.028-0.222,0.056-0.222,0.056s0.083,0,0.222,0c0.083,0,0.167,0,0.25-0.028
						c0.056,0,0.083-0.028,0.139-0.028c0.056,0,0.083-0.028,0.139-0.028c0.194-0.056,0.361-0.083,0.5-0.139
						c0.056-0.028,0.139-0.056,0.167-0.056c0.028-0.028,0.056-0.028,0.056-0.028c0.111-0.056,0.194-0.194,0.139-0.306
						c-0.056-0.139-0.194-0.194-0.306-0.139C10.028,18.861,10,18.861,9.973,18.889L9.973,18.889z"/>
				</g>
				<g>
					<path style="fill:#877B58;" d="M10.806,19.444c0.111,0,0.222-0.028,0.333-0.056c1.472-0.389,2.139-1.25,2.528-1.833
						c1.028-1.528,0.5-3.778,0.444-3.944l-2.583,1.028l0,0c0.194,0.75-0.167,2.028-1.056,2.278
						c-0.667,0.194-1.083,0.889-0.889,1.556C9.75,19.083,10.25,19.444,10.806,19.444z"/>
				</g>
			</g>
		</g>
		<g>
			<g>
				<g>
					<g>
						<path style="fill:#877B58;" d="M11.667,0C10.473,0,9.5,1.167,9.5,2.361s0.972,2.167,2.167,2.167s2.167-0.972,2.167-2.167
							C13.806,1.167,12.862,0,11.667,0z"/>
					</g>
				</g>
				<g>
					<g>
						<path style="fill:#695A42;" d="M3.5,0C2.306,0,1.334,1.167,1.334,2.361S2.306,4.528,3.5,4.528s2.167-0.972,2.167-2.167
							C5.667,1.167,4.695,0,3.5,0z"/>
					</g>
				</g>
			</g>
			<g>
				<path style="fill:#877B58;" d="M7.612,1.583H7.584V11.5c1.889,0,3.5,1.556,4.028,3.667c0.444-0.167,0.861-0.361,1.25-0.583l0,0
					c1.417-0.806,2.306-1.944,2.306-3.194C15.167,10.778,15.584,1.583,7.612,1.583z"/>
				<path style="fill:#695A42;" d="M7.584,11.5V1.583C-0.194,1.583,0,10.778,0,11.389c0,1.25,0.889,2.389,2.306,3.194l0,0
					c0.389,0.222,0.806,0.417,1.25,0.583C4.084,13.056,5.695,11.5,7.584,11.5z"/>
				<path style="fill:#F6F3CF;" d="M7.584,11.5v4.389c0.028,0,0.056,0,0.083,0c1,0,2.361-0.278,2.361-0.278
					c0.028,0,0.056,0,0.083-0.028c0.528-0.111,1.056-0.25,1.528-0.444C11.084,13.056,9.473,11.5,7.584,11.5z"/>
				<path style="fill:#F6F3CF;" d="M4.084,15.333c0.25,0.083,0.472,0.139,0.75,0.194c0.028,0,0.056,0,0.083,0.028
					c0.111,0.028,0.389,0.083,0.389,0.083s1.528,0.25,2.306,0.25V11.5c-1.889,0-3.5,1.556-4.028,3.667
					c0.167,0.056,0.306,0.111,0.472,0.167C4.056,15.333,4.056,15.333,4.084,15.333z"/>
			</g>
			<g>
				<g>
					<g>
						<g>
							<circle style="fill:#3C3C3B;" cx="10.639" cy="9.417" r="0.833"/>
						</g>
					</g>
				</g>
				<g>
					<g>
						<g>
							<circle style="fill:#3C3C3B;" cx="4.528" cy="9.417" r="0.833"/>
						</g>
					</g>
				</g>
				<g>
					<g>
						<circle style="fill:#FFFFFF;" cx="4.834" cy="9.167" r="0.306"/>
					</g>
				</g>
				<g>
					<g>
						<circle style="fill:#FFFFFF;" cx="10.889" cy="9.167" r="0.306"/>
					</g>
				</g>
			</g>
			<g>
				<g>
					<path style="fill:#3C3C3B;" d="M9,12.944L9,12.944L9,12.944L9,12.944c-0.028-0.361-0.639-0.667-1.417-0.667
						c-0.778,0-1.389,0.278-1.417,0.639l0,0l0,0l0,0c0,0.333,0.528,0.778,1.194,0.861v0.972c-0.056,0.083-0.222,0.222-0.389,0.139
						c-0.111-0.056-0.222-0.028-0.278,0.083c-0.056,0.111-0.028,0.222,0.083,0.278c0.111,0.056,0.194,0.083,0.306,0.083
						c0.194,0,0.361-0.111,0.5-0.222c0.139,0.111,0.306,0.222,0.5,0.222c0.083,0,0.194-0.028,0.306-0.083
						c0.111-0.056,0.139-0.167,0.083-0.278c-0.056-0.111-0.167-0.139-0.278-0.083c-0.167,0.083-0.333-0.056-0.389-0.139v-0.972
						C8.473,13.722,9,13.278,9,12.944z"/>
				</g>
			</g>
		</g>
	</g>
</g>
<g id="Layer_1">
</g>
</svg>
