<?xml version="1.0" encoding="iso-8859-1"?>
<!-- Generator: Adobe Illustrator 18.1.1, SVG Export Plug-In . SVG Version: 6.00 Build 0)  -->
<!DOCTYPE svg PUBLIC "-//W3C//DTD SVG 1.1//EN" "http://www.w3.org/Graphics/SVG/1.1/DTD/svg11.dtd">
<svg version="1.1" id="Layer_1" xmlns="http://www.w3.org/2000/svg" xmlns:xlink="http://www.w3.org/1999/xlink" x="0px" y="0px"
	 viewBox="0 0 42.497 7.68" style="enable-background:new 0 0 42.497 7.68;" xml:space="preserve">
<path style="fill:#C2B8AD;" d="M40.933,2.504c1.444,0.528,1.889,1.861,1.333,3.694c-0.361,0.361-0.75,0.75-1.111,1.111
	c-1.806,0.639-3.306,0.056-4.694-1.111c-0.389-0.361-0.75-0.694-1.25-0.139c-1.028,1.056-2.306,1.472-3.75,1.556
	c-0.167-0.056-0.333-0.083-0.472-0.139c-0.278-1.194-0.556-2.361-0.833-3.556c-0.083-0.306-0.25-0.556-0.556-0.667
	c0.333-0.667,0.556-1.417,1.222-1.889c0.5,0.389,0.861,0.694,1.5,0.083c0.5-0.5,1.056-0.861,1.639-1.083
	c1.694-0.722,3.611-0.361,5.139,0.972C39.683,1.838,40.238,2.254,40.933,2.504z"/>
<path style="fill:#C2B8AD;" d="M31.016,7.511c-1.333,0.056-2.194-0.917-3.25-1.472c0.028-0.083,0.028-0.139,0.028-0.222
	c0.806-0.694,1-1.833,1.806-2.528c0.333,0.111,0.5,0.361,0.556,0.667C30.46,5.15,30.738,6.316,31.016,7.511z"/>
<path style="fill:#C2B8AD;" d="M30.677,1.024c0.015,0.212,0.021,0.291,0.036,0.503c-0.566,0.452-0.802,1.144-1.086,1.79
	c-0.796,0.686-0.995,1.807-1.777,2.503c-0.018,0.016-0.044,0.022-0.067,0.019c-0.476-0.061-0.748,0.235-1.072,0.506
	c-2.028,1.75-4.472,1.778-6.5,0.083c-0.639-0.528-1.056-0.667-1.75-0.056c-1.972,1.694-4.333,1.75-6.472,0.083
	c-0.75-0.583-1.194-0.667-1.944,0C8.016,8.178,5.488,8.066,3.405,6.233C2.877,5.761,2.349,5.4,1.655,5.122
	c-1.194-0.5-1.833-1.694-1.611-2.889c0.25-1.278,1.278-2.139,2.611-2.167c1.333-0.056,2.5,0.417,3.472,1.333
	c0.528,0.5,0.917,0.5,1.472,0c2.083-1.806,4.667-1.833,6.722-0.056c0.528,0.472,0.861,0.556,1.472,0.083
	c2.444-1.944,4.556-1.889,7,0.083c0.361,0.306,0.667,0.5,1.083,0.083C25.967-0.44,28.28-0.35,30.677,1.024z"/>
<path style="fill:#C2B8AD;" d="M30.849,1.428"/>
<polyline style="fill:#C2B8AD;" points="30.849,1.428 30.677,1.024 29.627,3.316 "/>
<polyline style="fill:#C2B8AD;" points="27.766,6.039 26.493,5.186 28.664,3.82 "/>
<polyline style="fill:#C2B8AD;" points="30.677,1.024 31.959,2.131 29.709,2.855 "/>
</svg>
