<?xml version="1.0" encoding="iso-8859-1"?>
<!-- Generator: Adobe Illustrator 18.1.1, SVG Export Plug-In . SVG Version: 6.00 Build 0)  -->
<!DOCTYPE svg PUBLIC "-//W3C//DTD SVG 1.1//EN" "http://www.w3.org/Graphics/SVG/1.1/DTD/svg11.dtd">
<svg version="1.1" id="Layer_1" xmlns="http://www.w3.org/2000/svg" xmlns:xlink="http://www.w3.org/1999/xlink" x="0px" y="0px"
	 viewBox="0 0 16.398 22.333" style="enable-background:new 0 0 16.398 22.333;" xml:space="preserve">
<g>
	<path style="fill:#3C3C3B;" d="M16.254,10.778c-0.488-3.033-2.383-5.496-8.054-5.496c-5.269,0-7.468,2.541-8.039,5.639
		C0.051,11.514,0,12.128,0,12.749c0,0.426,0.018,0.873,0.058,1.332c0.318,3.697,3.989,8.137,8.142,8.137
		c4.13,0,7.833-4.538,8.147-8.259c0.035-0.416,0.052-0.822,0.052-1.21C16.398,12.078,16.356,11.416,16.254,10.778z"/>
	<g>
		<path style="fill:none;" d="M7.89,12.8c0.058,0.008,0.117,0.014,0.178,0.016C8.007,12.814,7.949,12.808,7.89,12.8L7.89,12.8z"/>
		<path style="fill:#3C3C3B;" d="M8.199,11.632l-1.101-0.935l-1.131,0.961l-1.131-0.961l-1.132,0.961l-1.132-0.961l-1.019,0.865
			c-0.136,0.967-0.137,1.705-0.137,1.705c0.089,3.671,3.09,9.065,6.781,9.065v-9.526V11.632z M7.89,12.8L7.89,12.8
			c0.059,0.008,0.117,0.014,0.178,0.016C8.007,12.814,7.949,12.808,7.89,12.8z"/>
		<path style="fill:#6F6F6E;" d="M12.756,11.658l-1.132-0.961l-1.131,0.961l-1.132-0.961L8.23,11.659l-0.031-0.026v1.175v9.526
			c3.695,0,6.698-5.4,6.781-9.074c0,0-0.001-0.787-0.151-1.8l-0.94-0.762L12.756,11.658z"/>
		<path style="fill:#D5D2B1;" d="M3.705,11.658l1.132-0.961l1.131,0.961l1.131-0.961l1.101,0.935V9.12V0
			C5.744,0,3.732,1.884,3.522,4.284L3.52,4.282c0,0,0,0.014,0,0.035c-0.01,0.126-0.019,0.253-0.019,0.381
			c0,0.039,0.004,0.077,0.005,0.117C3.48,5.288,3.409,6.027,3.204,6.807C3.058,7.354,2.848,7.92,2.535,8.429
			C2.309,8.8,2.129,9.221,1.985,9.655c-0.214,0.644-0.347,1.318-0.43,1.908l1.019-0.865L3.705,11.658z"/>
		<path style="fill:#F6F3CF;" d="M13.868,8.429c-0.285-0.468-0.487-0.985-0.63-1.489c-0.245-0.862-0.319-1.691-0.343-2.186
			c0-0.019,0.002-0.038,0.002-0.057c0-0.086-0.008-0.17-0.013-0.254c-0.002-0.101,0-0.162,0-0.162l-0.007,0.011
			C12.67,1.887,10.657,0,8.199,0v9.12v2.513l0.031,0.026l1.131-0.961l1.132,0.961l1.131-0.961l1.132,0.961l1.133-0.961l0.94,0.762
			c-0.08-0.541-0.202-1.146-0.389-1.73C14.293,9.27,14.107,8.822,13.868,8.429z"/>
	</g>
	<g>
		<g>
			<g>
				<g>
					<path style="fill:#F39E2B;" d="M6.559,3.125c-0.22,0.386-0.29,0.859-0.081,1.211l1.332,2.237
						c0.105,0.177,0.243,0.265,0.382,0.265V2.394C7.739,2.394,6.704,2.871,6.559,3.125z"/>
				</g>
			</g>
			<g>
				<g>
					<path style="fill:#FBDD58;" d="M8.574,6.572l1.332-2.237c0.21-0.352,0.183-0.742-0.08-1.211
						C9.715,2.929,8.57,2.394,8.192,2.394v4.444C8.33,6.837,8.469,6.749,8.574,6.572z"/>
				</g>
			</g>
		</g>
	</g>
	<g>
		<g>
			<path style="fill:#CABA9F;" d="M5.243,21.735c0,0.33-0.268,0.598-0.597,0.598l0,0c-0.331,0-0.598-0.268-0.598-0.598v-1.079
				c0-0.33,0.267-0.598,0.598-0.598l0,0c0.33,0,0.597,0.268,0.597,0.598V21.735z"/>
			<path style="fill:#CABA9F;" d="M6.439,21.735c0,0.33-0.268,0.598-0.598,0.598l0,0c-0.33,0-0.598-0.268-0.598-0.598v-1.079
				c0-0.33,0.268-0.598,0.598-0.598l0,0c0.33,0,0.598,0.268,0.598,0.598V21.735z"/>
			<path style="fill:#CABA9F;" d="M7.635,21.735c0,0.33-0.267,0.598-0.598,0.598l0,0c-0.33,0-0.598-0.268-0.598-0.598v-1.079
				c0-0.33,0.267-0.598,0.598-0.598l0,0c0.331,0,0.598,0.268,0.598,0.598V21.735z"/>
		</g>
		<g>
			<path style="fill:#DDD2C0;" d="M9.959,21.735c0,0.33-0.268,0.598-0.598,0.598l0,0c-0.33,0-0.598-0.268-0.598-0.598v-1.079
				c0-0.33,0.268-0.598,0.598-0.598l0,0c0.33,0,0.598,0.268,0.598,0.598V21.735z"/>
			<path style="fill:#DDD2C0;" d="M11.155,21.735c0,0.33-0.268,0.598-0.598,0.598l0,0c-0.331,0-0.598-0.268-0.598-0.598v-1.079
				c0-0.33,0.268-0.598,0.598-0.598l0,0c0.33,0,0.598,0.268,0.598,0.598V21.735z"/>
			<path style="fill:#DDD2C0;" d="M12.351,21.735c0,0.33-0.268,0.598-0.598,0.598l0,0c-0.33,0-0.598-0.268-0.598-0.598v-1.079
				c0-0.33,0.268-0.598,0.598-0.598l0,0c0.33,0,0.598,0.268,0.598,0.598V21.735z"/>
		</g>
	</g>
	<g>
		<g>
			<path style="fill:#F39E2B;" d="M4.767,3.06c0,0.484,0.393,0.877,0.877,0.877c0.484,0,0.877-0.393,0.877-0.877
				c0-0.355-0.33-0.633-0.877-0.877C5.202,1.985,4.767,2.575,4.767,3.06z"/>
			<circle style="fill:#3C3C3B;" cx="5.644" cy="3.06" r="0.386"/>
		</g>
		<g>
			<path style="fill:#FBDD58;" d="M11.633,3.06c0,0.484-0.393,0.877-0.877,0.877c-0.484,0-0.877-0.393-0.877-0.877
				c0-0.355,0.33-0.633,0.877-0.877C11.198,1.985,11.633,2.575,11.633,3.06z"/>
		</g>
		<circle style="fill:#3C3C3B;" cx="10.756" cy="3.06" r="0.386"/>
	</g>
</g>
</svg>
