<?xml version="1.0" encoding="iso-8859-1"?>
<!-- Generator: Adobe Illustrator 18.1.1, SVG Export Plug-In . SVG Version: 6.00 Build 0)  -->
<!DOCTYPE svg PUBLIC "-//W3C//DTD SVG 1.1//EN" "http://www.w3.org/Graphics/SVG/1.1/DTD/svg11.dtd">
<svg version="1.1" xmlns="http://www.w3.org/2000/svg" xmlns:xlink="http://www.w3.org/1999/xlink" x="0px" y="0px"
	 viewBox="0 0 20.813 22.333" style="enable-background:new 0 0 20.813 22.333;" xml:space="preserve">
<g id="fox">
	<g>
		<g>
			<g>
				<path style="fill:#F6F3CF;" d="M20.364,13.972c-0.083-0.083-0.222-0.139-0.361-0.194c0.028,0.028,0.083,0.056,0.111,0.056
					C20.198,13.861,20.281,13.917,20.364,13.972z"/>
			</g>
		</g>
		<g>
			<g>
				<path style="fill:#F6F3CF;" d="M20.364,13.972c-0.083-0.056-0.167-0.083-0.25-0.139C20.253,13.917,20.364,13.972,20.364,13.972z
					"/>
			</g>
		</g>
		<g>
			<g>
				<path style="fill:#F6F3CF;" d="M4.809,13.75c-0.139,0.056-0.278,0.139-0.361,0.194c0.083-0.056,0.167-0.083,0.25-0.139
					C4.725,13.806,4.781,13.778,4.809,13.75z"/>
			</g>
		</g>
		<g>
			<g>
				<path style="fill:#F6F3CF;" d="M4.448,13.972c0,0,0.111-0.056,0.25-0.139C4.614,13.861,4.531,13.917,4.448,13.972z"/>
			</g>
		</g>
		<g>
			<g>
				<g>
					<path style="fill:#D5D2B1;" d="M12.392,18.472c-2,0-3.75-0.972-4.75-2.389c0.056,1.278,0.639,2.417,1.5,3.222v1.5
						c-0.444,0.361-0.75,0.917-0.75,1.528h3.889c0-0.639-0.306-1.194-0.75-1.528V20.5c0.278,0.056,0.556,0.083,0.861,0.083
						L12.392,18.472L12.392,18.472z"/>
				</g>
			</g>
			<g>
				<g>
					<path style="fill:#F6F3CF;" d="M15.642,20.806v-1.5c0.889-0.833,1.444-1.972,1.5-3.278c-0.972,1.472-2.75,2.444-4.75,2.444
						v2.111c0.306,0,0.583-0.028,0.861-0.083v0.306c-0.444,0.361-0.75,0.917-0.75,1.528h3.889
						C16.392,21.722,16.114,21.167,15.642,20.806z"/>
				</g>
			</g>
			<g>
				<g>
					<path style="fill:#D5D2B1;" d="M10.725,17.167L10.725,17.167c0.306,0.167,0.639,0.333,1,0.556
						c0.222,0.139,0.444,0.278,0.667,0.417v-2.083v-5c-2.639,0-4.778,2.139-4.778,4.778c0,0.083,0,0.167,0,0.25
						c0.5,0.722,1.194,1.333,2.056,1.75c-0.056-0.306-0.111-0.639-0.139-1C9.92,16.944,10.309,17.056,10.725,17.167z"/>
				</g>
			</g>
			<g>
				<g>
					<path style="fill:#D5D2B1;" d="M12.392,11.056v5l0,0v2.083c0.222-0.139,0.444-0.278,0.667-0.417
						c0.333-0.194,0.667-0.389,1-0.528c0.444-0.111,0.833-0.222,1.222-0.333c-0.056,0.333-0.083,0.667-0.139,0.972
						c0.833-0.417,1.528-1.056,2.028-1.778c0-0.056,0-0.139,0-0.194C17.17,13.194,15.031,11.056,12.392,11.056z"/>
				</g>
			</g>
			<g>
				<g>
					<path style="fill:#D5D2B1;" d="M12.392,18.472v-0.361c-0.222-0.139-0.444-0.278-0.667-0.417c-0.333-0.194-0.667-0.389-1-0.528
						l0,0c-0.417-0.111-0.833-0.194-1.194-0.333c0.056,0.361,0.111,0.694,0.139,1C10.503,18.25,11.42,18.472,12.392,18.472
						L12.392,18.472z"/>
				</g>
			</g>
			<g>
				<g>
					<path style="fill:#D5D2B1;" d="M14.059,17.167c-0.306,0.167-0.639,0.333-1,0.528c-0.222,0.139-0.444,0.278-0.667,0.417v-2.083
						l0,0v2.083v0.361c1,0,1.944-0.25,2.75-0.667c0.056-0.306,0.083-0.639,0.139-0.972C14.92,16.944,14.503,17.056,14.059,17.167z"
						/>
				</g>
			</g>
			<g>
				<g>
					<path style="fill:#D5D2B1;" d="M12.392,18.472c-0.972,0-1.889-0.222-2.694-0.639c0.278,1.611,0.694,2.75,2.722,2.75
						L12.392,18.472L12.392,18.472z"/>
				</g>
			</g>
			<g>
				<g>
					<path style="fill:#F6F3CF;" d="M15.142,17.806c-0.806,0.417-1.75,0.667-2.75,0.667v2.111
						C14.475,20.583,14.892,19.444,15.142,17.806z"/>
				</g>
			</g>
		</g>
		<g>
			<g>
				<g>
					<path style="fill:#F6F3CF;" d="M14.781,6.722C16.003,1.75,20.059,0,20.059,0s2.889,7.556-2.639,9.361L14.781,6.722z"/>
				</g>
			</g>
			<g>
				<g>
					<path style="fill:#F29E9F;" d="M15.392,7.194c1.583-4.722,4.111-5.556,4.111-5.556s2.194,4.528-2.611,7.278L15.392,7.194z"/>
				</g>
			</g>
			<g>
				<g>
					<path style="fill:#F6F3CF;" d="M10.031,6.722C8.809,1.75,4.753,0,4.753,0S1.864,7.556,7.392,9.361L10.031,6.722z"/>
				</g>
			</g>
			<g>
				<g>
					<path style="fill:#F29E9F;" d="M9.42,7.194C7.837,2.472,5.309,1.639,5.309,1.639S3.114,6.167,7.92,8.917L9.42,7.194z"/>
				</g>
			</g>
		</g>
		<g>
			<g>
				<g>
					<path style="fill:#D5D2B1;" d="M9.42,18.639c-1.611,1.333-3.75,0.444-5-0.944c-0.111-0.111-0.222-0.194-0.333-0.306
						c-0.528-0.028-1.111,0.028-1.583,0.306c0,0,0.861,0.639,1.167,1.333c0,0-0.944,0.194-1.694-0.278c0,0,0.083,1.139,0.889,2.111
						C3.114,20.944,3.392,21,3.67,21.056c4.917,0.972,6.333-1.833,6.333-1.833L9.42,18.639z"/>
				</g>
			</g>
			<g>
				<g>
					<path style="fill:#9C9B9B;" d="M3.698,19.056c-0.333-0.694-1.167-1.333-1.167-1.333c0.472-0.278,1.056-0.333,1.583-0.306
						c-1.389-1.083-3.944-1.139-3.944-1.139s-1.194,3.389,2.75,4.611c-0.806-0.972-0.889-2.111-0.889-2.111
						C2.725,19.25,3.698,19.056,3.698,19.056z"/>
				</g>
			</g>
		</g>
		<g>
			<g>
				<g>
					<g>
						<path style="fill:#F6F3CF;" d="M16.781,13.778c-1.694,0.444-3.222,1.861-3.5,2.5c-0.25-0.139-0.556-0.222-0.861-0.222v-3.25
							V5.472c3.361,0,6.111,2.722,6.111,6.111c0,0.083,0,0.167,0,0.222C18.92,13.361,20.42,14,20.42,14
							C19.725,13.556,18.448,13.333,16.781,13.778z"/>
					</g>
				</g>
				<g>
					<g>
						<path style="fill:#F6F3CF;" d="M14.059,17.167c-0.167-0.389-0.444-0.694-0.806-0.889c0.306-0.472,0.889-1.694,3.111-2.444
							c1.639-0.556,3.444-0.25,3.972,0.139C20.364,13.972,18.698,16.083,14.059,17.167z"/>
					</g>
				</g>
				<g>
					<g>
						<g>
							<path style="fill:#3C3C3B;" d="M10.725,17.167c0.306,0.167,0.639,0.333,1,0.528c0.222,0.139,0.444,0.278,0.667,0.417v-2.083
								c-0.306,0-0.611,0.083-0.861,0.222C11.17,16.472,10.892,16.778,10.725,17.167z"/>
						</g>
					</g>
					<g>
						<g>
							<path style="fill:#3C3C3B;" d="M13.253,16.278c-0.25-0.139-0.556-0.222-0.861-0.222v2.083
								c0.222-0.139,0.444-0.278,0.667-0.417c0.333-0.194,0.667-0.389,1-0.528C13.92,16.778,13.614,16.472,13.253,16.278z"/>
						</g>
					</g>
				</g>
			</g>
			<g>
				<g>
					<g>
						<path style="fill:#D5D2B1;" d="M8.031,13.778c1.694,0.444,3.222,1.861,3.5,2.5c0.25-0.139,0.556-0.222,0.861-0.222v-3.25
							V5.472c-3.361,0-6.111,2.722-6.111,6.111c0,0.083,0,0.167,0,0.222C5.892,13.361,4.392,14,4.392,14
							C5.087,13.556,6.364,13.333,8.031,13.778z"/>
					</g>
				</g>
				<g>
					<g>
						<path style="fill:#D5D2B1;" d="M10.725,17.167c0.167-0.389,0.444-0.694,0.806-0.889c-0.306-0.472-1.278-1.75-3.5-2.5
							c-1.639-0.556-3.056-0.194-3.583,0.194C4.448,13.972,6.087,16.083,10.725,17.167z"/>
					</g>
				</g>
			</g>
		</g>
		<g>
			<g>
				<path style="fill:none;" d="M8.031,13.778c0.583,0.194,1.083,0.417,1.5,0.667v-0.028C9.087,14.139,8.559,13.917,8.031,13.778z"
					/>
			</g>
		</g>
		<g>
			<g>
				<path style="fill:#E96332;" d="M12.392,5.444L12.392,5.444L12.392,5.444L12.392,5.444z"/>
			</g>
		</g>
		<g>
			<g>
				<path style="fill:#07171B;" d="M11.531,16.25L11.531,16.25C11.531,16.278,11.531,16.278,11.531,16.25
					C11.531,16.278,11.531,16.278,11.531,16.25z"/>
			</g>
		</g>
		<g>
			<g>
				<path style="fill:#A84720;" d="M12.42,5.444L12.42,5.444L12.42,5.444L12.42,5.444z"/>
			</g>
		</g>
		<g>
			<g>
				<path style="fill:#A84720;" d="M11.531,16.25C11.531,16.278,11.531,16.278,11.531,16.25c0.25-0.139,0.556-0.222,0.861-0.222l0,0
					C12.087,16.028,11.809,16.111,11.531,16.25z"/>
			</g>
		</g>
		<g>
			<g>
				<path style="fill:#A84720;" d="M12.392,16.028L12.392,16.028L12.392,16.028L12.392,16.028z"/>
			</g>
		</g>
		<g>
			<g>
				<g>
					<path style="fill:#D5D2B1;" d="M12.309,22.333c0-1.083-0.861-1.944-1.944-1.944S8.42,21.25,8.42,22.333H12.309z"/>
				</g>
			</g>
			<g>
				<g>
					<path style="fill:#F6F3CF;" d="M16.42,22.333c0-1.083-0.861-1.944-1.944-1.944s-1.944,0.861-1.944,1.944H16.42z"/>
				</g>
			</g>
		</g>
		<g>
			<g>
				<path style="fill:#AF5B2B;" d="M7.67,10.806c0,0,2.611-0.75,2.556,1.889C10.225,12.722,7.67,13.639,7.67,10.806"/>
			</g>
		</g>
		<g>
			<g>
				<path style="fill:#AF5B2B;" d="M14.503,12.722c0,0,2.556,0.917,2.556-1.889C17.031,10.806,14.42,10.056,14.503,12.722"/>
			</g>
		</g>
		<g>
			<g>
				<g>
					<circle style="fill:#FFFFFF;" cx="9.253" cy="11.5" r="0.472"/>
				</g>
			</g>
		</g>
		<g>
			<g>
				<g>
					<circle style="fill:#FFFFFF;" cx="16.114" cy="11.5" r="0.472"/>
				</g>
			</g>
		</g>
	</g>
</g>
<g id="Layer_1">
</g>
</svg>
