<?xml version="1.0" encoding="iso-8859-1"?>
<!-- Generator: Adobe Illustrator 18.1.1, SVG Export Plug-In . SVG Version: 6.00 Build 0)  -->
<!DOCTYPE svg PUBLIC "-//W3C//DTD SVG 1.1//EN" "http://www.w3.org/Graphics/SVG/1.1/DTD/svg11.dtd">
<svg version="1.1" id="Layer_1" xmlns="http://www.w3.org/2000/svg" xmlns:xlink="http://www.w3.org/1999/xlink" x="0px" y="0px"
	 viewBox="0 0 171.866 86.609" style="enable-background:new 0 0 171.866 86.609;" xml:space="preserve">
<g id="Layer_2">
	<g>
		<path style="fill:#554C48;" d="M87.831,47.027c0.332,0.526,0.193,0.775-0.442,0.775c-1.495-0.028-2.989,0.139-4.484-0.083
			c-0.332-1.384-1.328-2.408-2.049-3.543c-0.277-0.442-0.554-0.83-0.498-1.356c1.19-0.858,1.854-2.298,3.211-3.017
			C84.979,42.156,86.391,44.592,87.831,47.027z"/>
		<path style="fill:#605A55;" d="M80.856,44.149c0.719,1.163,1.744,2.159,2.049,3.543c-3.405,0.221-6.809,0.166-10.214,0.028l0,0
			c0.277-4.291,0.803-8.553,1.439-12.815c1.218,0.416,1.577,1.605,2.214,2.519c0.969,1.328,1.8,2.74,2.712,4.124
			c0.36,0.498,0.692,1.024,1.301,1.246C80.302,43.318,80.579,43.706,80.856,44.149z"/>
		<path style="fill:#6C6A62;" d="M83.568,39.776c-1.356,0.719-2.021,2.159-3.211,3.017c-0.637-0.221-0.969-0.747-1.301-1.246
			c-0.914-1.384-1.744-2.823-2.712-4.124c-0.665-0.914-1.024-2.104-2.214-2.519c0.056-0.914-0.554-1.577-1.052-2.27
			c-1.439-2.021-2.879-4.069-4.096-6.228c0.221-1.8,1.246-3.321,1.772-5.01c0.221-0.665,0.554-1.328,0.858-1.993
			c0.498,0.249,0.665,0.747,0.914,1.163C76.205,26.96,79.886,33.353,83.568,39.776z"/>
		<path style="fill:#554B47;" d="M73.084,32.547c0.508,0.705,1.1,1.354,1.072,2.314c-0.649,4.317-1.185,8.689-1.467,13.063
			c-0.79,0.057-1.58,0.085-2.342,0.085c-2.793,0.057-5.586-0.028-8.379-0.028c0.028-1.58-0.621-3.047-0.508-4.627
			c0.226-0.339,0.508-0.621,0.649-0.96c1.354-4.063,3.357-7.871,4.768-11.934c0.508-1.467,0.987-3.047,2.06-4.26
			C70.151,28.4,71.618,30.489,73.084,32.547z"/>
		<path style="fill:#615A55;" d="M71.326,18.175c0.229,0.373,0.344,0.802,0.486,1.203c-0.286,0.688-0.659,1.346-0.888,2.062
			c-0.544,1.747-1.632,3.321-1.832,5.183c-1.088,1.232-1.574,2.806-2.091,4.324c-1.46,4.094-3.494,7.96-4.839,12.112
			c-0.115,0.373-0.429,0.659-0.659,0.974c-0.286-0.401-0.401-0.859-0.458-1.346c-0.286-3.264-0.917-6.471-1.317-9.707
			c-0.2-1.547-0.715-3.092-0.63-4.667c0.029-0.401-0.057-0.802-0.486-1.002c0.229-0.659,0.917-1.059,0.945-1.804
			c0.373-0.373,0.773-0.773,1.145-1.145c0.229,0.143-0.587,0.913-0.443,0.741c1.203-1.661,3.65-3.919,4.911-5.522
			c0.486-0.63,1.288-1.059,1.403-1.947v-0.057c0.229,0.029,0.486,0.086,0.63-0.143c0.115-0.229-0.086-0.344-0.258-0.401
			c0.601-1.088,1.203-2.176,1.804-3.264c0.029,0.057,0.086,0.086,0.143,0.115C69.666,15.283,70.496,16.715,71.326,18.175z"/>
		<path style="fill:#FCE9E3;" d="M65.299,7.944c1.108,2.021,2.215,4.014,3.35,6.035c-0.581,1.052-1.163,2.104-1.744,3.156
			c-0.111,0.193-0.221,0.36-0.36,0.554v0.028c-0.581,0.36-0.526-0.277-0.637-0.47c-0.637-1.024-1.218-2.076-1.91-3.266
			c-0.803,1.412-1.523,2.63-2.325,4.042c-0.803-1.412-1.55-2.658-2.325-4.014c-0.803,1.412-1.55,2.63-2.325,3.986
			c-0.803-1.384-1.55-2.63-2.353-3.986c-0.803,1.384-1.523,2.63-2.298,3.958c-0.416-0.665-0.747-1.19-1.079-1.744
			c0.083-0.914,0.719-1.605,1.135-2.353C55.058,9.273,57.743,4.705,60.455,0C62.283,2.63,63.473,5.481,65.299,7.944z"/>
		<path style="fill:#574D4A;" d="M65.909,17.245c0.111,0.221,0.083,0.83,0.637,0.47c-0.111,0.886-0.914,1.301-1.356,1.882
			c-1.218,1.55-2.684,2.879-3.819,4.512c-0.111,0.193-0.277,0.249-0.498,0.111c0.526-1.827,0.083-3.128-1.328-3.681
			c-0.719-0.277-1.273-0.665-1.8-1.163c-1.523-1.328-3.432-1.688-5.121-0.969l-0.278-0.471c0.775-1.356,1.495-2.602,2.298-3.958
			c0.803,1.356,1.523,2.602,2.353,3.986c0.775-1.356,1.523-2.602,2.325-3.986c0.803,1.384,1.523,2.602,2.325,4.014
			c0.803-1.384,1.523-2.63,2.325-4.042C64.69,15.14,65.272,16.22,65.909,17.245z"/>
		<path style="fill:#6C6962;" d="M61.618,43.235c-0.083,1.55,0.526,3.017,0.498,4.54c-2.658,0-5.287,0-7.944,0
			c-0.416-1.412-1.439-2.491-2.131-3.765c-0.914-1.661-2.214-3.128-2.961-4.926c0.416-1.523,1.688-2.435,2.574-3.598
			c0.249-0.332,0.609-0.609,0.692-1.052c2.298-2.353,4.263-4.954,6.449-7.418c0.416,0.193,0.498,0.581,0.47,0.969
			c-0.083,1.55,0.416,2.989,0.609,4.512c0.388,3.128,0.996,6.228,1.273,9.384C61.231,42.405,61.369,42.848,61.618,43.235z"/>
		<path style="fill:#554C48;" d="M59.792,25.327c-0.056,0.719-0.692,1.107-0.914,1.744c-2.159,2.435-4.152,5.065-6.449,7.418
			c-0.775-2.049-1.273-4.179-1.854-6.256c-0.221-0.83-0.637-1.633-0.47-2.574c1.412-0.083,2.712-0.498,3.737-1.55
			c0.498-0.526,0.858-0.193,1.246,0.139C56.497,25.382,57.992,25.964,59.792,25.327z"/>
		<path style="fill:#554B48;" d="M54.227,47.774c-4.207,0-8.414-0.028-12.622-0.028l0,0c0.83-1.605,2.214-2.823,3.321-4.235
			c1.052-1.328,2.186-2.574,3.266-3.847c0.249-0.305,0.498-0.609,0.941-0.581c0.719,1.8,2.021,3.266,2.961,4.926
			C52.789,45.256,53.813,46.335,54.227,47.774z"/>
		<path style="fill:#615A55;" d="M51.736,35.513c-0.914,1.19-2.159,2.076-2.574,3.598c-0.442-0.028-0.692,0.277-0.941,0.581
			c-1.107,1.273-2.242,2.519-3.266,3.847c-1.107,1.412-2.491,2.602-3.321,4.235c-0.637,0-1.328,0.028-1.965,0.028
			c-1.966,0.028-3.931,0.028-5.896,0.056c-0.803,0-0.941-0.249-0.526-0.941c3.958-6.809,7.889-13.619,11.847-20.427
			c0.47-0.803,0.914-1.605,1.328-2.435c1.052,0.581,1.91,1.523,3.238,1.467c0.166,0.056,0.332,0.083,0.47,0.139
			c-0.193,0.914,0.221,1.744,0.47,2.574C51.155,30.309,51.985,35.153,51.736,35.513z"/>
		<polygon style="fill:#574D4A;" points="49.661,25.52 57.445,28.681 63.532,21.311 54.722,17.307 52.345,17.936 51.294,16.22 
			46.422,24.054 		"/>
		<polygon style="fill:#615A55;" points="52.318,34.128 49.194,19.55 46.422,24.054 51.736,35.513 		"/>
		<polyline style="fill:#615A55;" points="52.719,34.368 50.956,36.371 51.757,31.965 		"/>
		<polyline style="fill:#615A55;" points="66.965,17.092 66.804,17.321 66.16,18.237 66.087,18.342 68.178,19.737 69.304,18.193 
			67.137,16.714 		"/>
	</g>
</g>
<path style="fill:#F2E8E7;" d="M0.247,50.658c14.479-5.301,26.42-6.835,34.371-7.319c18.934-1.157,29.081,2.96,52.655,1.749
	c9.838-0.511,17.789-1.722,22.677-2.61l-4.888,43.324L3.341,86.609L0,50.497"/>
<path style="fill:#F2E8E7;" d="M108.951,42.478c0,0,6.602-21.478,12.81-24.533c10.452-5.143,31.855-7.632,31.855-7.632l18.25,10.784
	l-10.294,65.35l-21.312-65.873l21.312,65.873l-56.872-0.646"/>
<path style="fill:#666363;" d="M127.686,23.955c11.291,0.25,11.335,19.303,11.335,19.303l-24.348-0.54
	C114.673,42.718,121.979,23.828,127.686,23.955z"/>
</svg>
