<?xml version="1.0" encoding="iso-8859-1"?>
<!-- Generator: Adobe Illustrator 18.1.1, SVG Export Plug-In . SVG Version: 6.00 Build 0)  -->
<!DOCTYPE svg PUBLIC "-//W3C//DTD SVG 1.1//EN" "http://www.w3.org/Graphics/SVG/1.1/DTD/svg11.dtd">
<svg version="1.1" id="Layer_1" xmlns="http://www.w3.org/2000/svg" xmlns:xlink="http://www.w3.org/1999/xlink" x="0px" y="0px"
	 viewBox="0 0 158.55 86.668" style="enable-background:new 0 0 158.55 86.668;" xml:space="preserve">
<g id="Layer_2">
	<g>
		<path style="fill:#554C48;" d="M74.947,47.027c0.332,0.526,0.193,0.775-0.442,0.775c-1.495-0.028-2.989,0.139-4.484-0.083
			c-0.332-1.384-1.328-2.408-2.049-3.543c-0.277-0.442-0.554-0.83-0.498-1.356c1.19-0.858,1.854-2.298,3.211-3.017
			C72.095,42.156,73.507,44.592,74.947,47.027z"/>
		<path style="fill:#605A55;" d="M67.972,44.149c0.719,1.163,1.744,2.159,2.049,3.543c-3.405,0.221-6.809,0.166-10.214,0.028l0,0
			c0.277-4.291,0.803-8.553,1.439-12.815c1.218,0.416,1.577,1.605,2.214,2.519c0.969,1.328,1.8,2.74,2.712,4.124
			c0.36,0.498,0.692,1.024,1.301,1.246C67.418,43.318,67.695,43.706,67.972,44.149z"/>
		<path style="fill:#6C6A62;" d="M70.684,39.776c-1.356,0.719-2.021,2.159-3.211,3.017c-0.637-0.221-0.969-0.747-1.301-1.246
			c-0.914-1.384-1.744-2.823-2.712-4.124c-0.665-0.914-1.024-2.104-2.214-2.519c0.056-0.914-0.554-1.577-1.052-2.27
			c-1.439-2.021-2.879-4.069-4.096-6.228c0.221-1.8,1.246-3.321,1.772-5.01c0.221-0.665,0.554-1.328,0.858-1.993
			c0.498,0.249,0.665,0.747,0.914,1.163C63.321,26.96,67.002,33.353,70.684,39.776z"/>
		<path style="fill:#554B47;" d="M60.201,32.547c0.508,0.705,1.1,1.354,1.072,2.314c-0.649,4.317-1.185,8.689-1.467,13.063
			c-0.79,0.057-1.58,0.085-2.342,0.085c-2.793,0.057-5.586-0.028-8.379-0.028c0.028-1.58-0.621-3.047-0.508-4.627
			c0.226-0.339,0.508-0.621,0.649-0.96c1.354-4.063,3.357-7.871,4.768-11.934c0.508-1.467,0.987-3.047,2.06-4.26
			C57.267,28.4,58.734,30.489,60.201,32.547z"/>
		<path style="fill:#615A55;" d="M58.442,18.175c0.229,0.373,0.344,0.802,0.486,1.203c-0.286,0.688-0.659,1.346-0.888,2.062
			c-0.544,1.747-1.632,3.321-1.832,5.183c-1.088,1.232-1.574,2.806-2.091,4.324c-1.46,4.094-3.494,7.96-4.839,12.112
			c-0.115,0.373-0.429,0.659-0.659,0.974c-0.286-0.401-0.401-0.859-0.458-1.346c-0.286-3.264-0.917-6.471-1.317-9.707
			c-0.2-1.547-0.715-3.092-0.63-4.667c0.029-0.401-0.057-0.802-0.486-1.002c0.229-0.659,0.917-1.059,0.945-1.804
			c0.373-0.373,0.773-0.773,1.145-1.145c0.229,0.143-0.587,0.913-0.443,0.741c1.203-1.661,3.65-3.919,4.911-5.522
			c0.486-0.63,1.288-1.059,1.403-1.947v-0.057c0.229,0.029,0.486,0.086,0.63-0.143c0.115-0.229-0.086-0.344-0.258-0.401
			c0.601-1.088,1.203-2.176,1.804-3.264c0.029,0.057,0.086,0.086,0.143,0.115C56.782,15.283,57.612,16.715,58.442,18.175z"/>
		<path style="fill:#FCE9E3;" d="M52.415,7.944c1.108,2.021,2.215,4.014,3.35,6.035c-0.581,1.052-1.163,2.104-1.744,3.156
			c-0.111,0.193-0.221,0.36-0.36,0.554v0.028c-0.581,0.36-0.526-0.277-0.637-0.47c-0.637-1.024-1.218-2.076-1.91-3.266
			c-0.803,1.412-1.523,2.63-2.325,4.042c-0.803-1.412-1.55-2.658-2.325-4.014c-0.803,1.412-1.55,2.63-2.325,3.986
			c-0.803-1.384-1.55-2.63-2.353-3.986c-0.803,1.384-1.523,2.63-2.298,3.958c-0.416-0.665-0.747-1.19-1.079-1.744
			c0.083-0.914,0.719-1.605,1.135-2.353C42.175,9.273,44.859,4.705,47.571,0C49.399,2.63,50.589,5.481,52.415,7.944z"/>
		<path style="fill:#574D4A;" d="M53.025,17.245c0.111,0.221,0.083,0.83,0.637,0.47c-0.111,0.886-0.914,1.301-1.356,1.882
			c-1.218,1.55-2.684,2.879-3.819,4.512c-0.111,0.193-0.277,0.249-0.498,0.111c0.526-1.827,0.083-3.128-1.328-3.681
			c-0.719-0.277-1.273-0.665-1.8-1.163c-1.523-1.328-3.432-1.688-5.121-0.969l-0.278-0.471c0.775-1.356,1.495-2.602,2.298-3.958
			c0.803,1.356,1.523,2.602,2.353,3.986c0.775-1.356,1.523-2.602,2.325-3.986c0.803,1.384,1.523,2.602,2.325,4.014
			c0.803-1.384,1.523-2.63,2.325-4.042C51.806,15.14,52.388,16.22,53.025,17.245z"/>
		<path style="fill:#6C6962;" d="M48.734,43.235c-0.083,1.55,0.526,3.017,0.498,4.54c-2.658,0-5.287,0-7.944,0
			c-0.416-1.412-1.439-2.491-2.131-3.765c-0.914-1.661-2.214-3.128-2.961-4.926c0.416-1.523,1.688-2.435,2.574-3.598
			c0.249-0.332,0.609-0.609,0.692-1.052c2.298-2.353,4.263-4.954,6.449-7.418c0.416,0.193,0.498,0.581,0.47,0.969
			c-0.083,1.55,0.416,2.989,0.609,4.512c0.388,3.128,0.996,6.228,1.273,9.384C48.347,42.405,48.485,42.848,48.734,43.235z"/>
		<path style="fill:#554C48;" d="M46.908,25.327c-0.056,0.719-0.692,1.107-0.914,1.744c-2.159,2.435-4.152,5.065-6.449,7.418
			c-0.775-2.049-1.273-4.179-1.854-6.256c-0.221-0.83-0.637-1.633-0.47-2.574c1.412-0.083,2.712-0.498,3.737-1.55
			c0.498-0.526,0.858-0.193,1.246,0.139C43.613,25.382,45.108,25.964,46.908,25.327z"/>
		<path style="fill:#554B48;" d="M41.344,47.774c-4.207,0-8.414-0.028-12.622-0.028l0,0c0.83-1.605,2.214-2.823,3.321-4.235
			c1.052-1.328,2.186-2.574,3.266-3.847c0.249-0.305,0.498-0.609,0.941-0.581c0.719,1.8,2.021,3.266,2.961,4.926
			C39.905,45.256,40.929,46.335,41.344,47.774z"/>
		<path style="fill:#615A55;" d="M38.852,35.513c-0.914,1.19-2.159,2.076-2.574,3.598c-0.442-0.028-0.692,0.277-0.941,0.581
			c-1.107,1.273-2.242,2.519-3.266,3.847c-1.107,1.412-2.491,2.602-3.321,4.235c-0.637,0-1.328,0.028-1.965,0.028
			c-1.966,0.028-3.931,0.028-5.896,0.056c-0.803,0-0.941-0.249-0.526-0.941c3.958-6.809,7.889-13.619,11.847-20.427
			c0.47-0.803,0.914-1.605,1.328-2.435c1.052,0.581,1.91,1.523,3.238,1.467c0.166,0.056,0.332,0.083,0.47,0.139
			c-0.193,0.914,0.221,1.744,0.47,2.574C38.271,30.309,39.101,35.153,38.852,35.513z"/>
		<polygon style="fill:#574D4A;" points="36.777,25.52 44.561,28.681 50.648,21.311 41.838,17.307 39.461,17.936 38.41,16.22 
			33.538,24.054 		"/>
		<polygon style="fill:#615A55;" points="39.434,34.128 36.31,19.55 33.538,24.054 38.852,35.513 		"/>
		<polyline style="fill:#615A55;" points="39.835,34.368 38.072,36.371 38.873,31.965 		"/>
		<polyline style="fill:#615A55;" points="54.081,17.092 53.92,17.321 53.276,18.237 53.203,18.342 55.294,19.737 56.42,18.193 
			54.253,16.714 		"/>
	</g>
</g>
<g>
	<g>
		<path style="fill:#F2E8E7;" d="M0.215,50.718c12.593-5.301,22.98-6.835,29.896-7.319c16.468-1.157,25.294,2.96,45.799,1.749
			c8.557-0.511,15.473-1.722,19.724-2.61l-4.252,43.324L2.906,86.668L0,50.556"/>
		<path style="fill:#F2E8E7;" d="M95.635,42.538c0,0,6.602-21.478,12.81-24.533c10.452-5.143,31.855-7.632,31.855-7.632
			l18.25,10.784l-10.294,65.35l-21.312-65.873l21.312,65.873l-56.872-0.646"/>
		<path style="fill:#666363;" d="M114.37,24.015c11.291,0.25,11.335,19.303,11.335,19.303l-24.348-0.54
			C101.357,42.777,108.663,23.888,114.37,24.015z"/>
	</g>
</g>
</svg>
