<?xml version="1.0" encoding="iso-8859-1"?>
<!-- Generator: Adobe Illustrator 18.1.1, SVG Export Plug-In . SVG Version: 6.00 Build 0)  -->
<!DOCTYPE svg PUBLIC "-//W3C//DTD SVG 1.1//EN" "http://www.w3.org/Graphics/SVG/1.1/DTD/svg11.dtd">
<svg version="1.1" id="Layer_1" xmlns="http://www.w3.org/2000/svg" xmlns:xlink="http://www.w3.org/1999/xlink" x="0px" y="0px"
	 viewBox="14.75 -103.22 298.5 254.95" style="enable-background:new 14.75 -103.22 298.5 254.95;" xml:space="preserve">
<path style="fill:none;enable-background:new    ;" d="z"/>
<g id="XMLID_3_">
	<g>
		<path style="fill:#7FB5D3;" d="M267.92,20.8c2.06,2.81,4.03,5.72,5.68,8.78c0.46,0.86,0.88,1.63,1.23,2.32
			c3.02,5.83,2.22,6.46-4.66,12.04c-5.12-5.62-10.27-11.26-15.88-17.41c-5.89,5.4-11.59,10.61-17.53,16.05
			c-6.07-5.78-11.82-11.25-17.91-17.06c-6.66,5.69-13.09,11.16-20.06,17.11c-5.72-4.62-11.49-9.04-16.95-13.81
			c-2.66-2.32-4.45-2.5-7.11,0.01c-4.59,4.33-9.56,8.24-14.87,12.76c-4.69-4.99-9.2-9.78-14.14-15.04
			c-6.37,5.2-12.63,10.32-19.41,15.86c-4.31-4.73-8.69-9.22-12.68-14.03c-2.81-3.39-4.82-3.08-7.5,0.12
			c-4.03,4.81-8.39,9.35-12.93,14.34c-4.76-4.19-9.23-7.89-13.42-11.88c-2.57-2.46-4.52-2.74-7.07,0.01
			c-3.94,4.26-8.16,8.27-12.97,11.98c2.17-4.13,4.49-8.2,6.45-12.43c0.92-1.98,1.19-4.28,1.73-6.43c0.75-0.51,1.64-0.9,2.14-1.58
			c5.73-7.8,14.79-9.78,23.09-12.87c1.93-0.71,4.9,0.48,7.07,1.47c5.41,2.49,10.49,2.64,15.49-0.83c3.98-2.77,8.01-2.8,12.07-0.17
			c4.94,3.22,9.9,2.99,15.02,0.32c5.01-2.62,9.86-2.72,15.16,0.05c2.38,1.25,6.38,1.3,8.84,0.15c7.12-3.32,13.94-3.75,21-0.34
			c4.17,2.02,8.33,2.01,12.39-0.26c6.6-3.68,13.17-3.85,19.8-0.05c3.31,1.91,6.72,1.82,9.94-0.14c6.16-3.74,12.14-3.51,18.17,0.29
			c3.15,1.99,6.27,2.05,9.74-2.01c2.42,3.6,4.41,6.79,6.65,9.8C265.36,19.08,267.07,19.63,267.92,20.8z"/>
		<path style="fill:#7FB5D3;" d="M251.67,55.56c1.86-2.03,2.95-3.22,4.38-4.78c1.95,2.16,3.41,3.76,5.71,6.3
			C257.92,56.5,255.39,56.12,251.67,55.56z"/>
		<path style="fill:#7FB5D3;" d="M248.69,1.09c-1.44-0.34-3.29-0.22-4.27-1.09c-6.85-6.03-13.51-6.25-20.81-0.59
			c-1.33,1.03-5.01,0.65-6.58-0.49c-6.78-4.92-13.2-5.17-19.85-0.01c-3.4,2.65-6.94,2.71-10.61,0.36c-1.25-0.8-2.84-1.06-4.07-1.87
			c-4.44-2.93-8.68-2.68-12.86,0.45c-5.05,3.77-9.97,3.81-14.76-0.5c-2.3-2.07-4.75-2.08-7.27-0.37c-0.41,0.28-0.94,0.4-1.33,0.7
			c-6.65,5.1-12.98,4.48-19.11-0.96c-2.02-1.79-4.24-2.07-6.18,0c-7.39,7.89-14.91,4.9-23.46-0.17
			c15.27-9.79,29.18-20.72,46.13-26.41c1.31-0.44,3.8,0.04,4.61,1.03c10.93,13.3,32.56,16.47,49.05,3.65
			c0.84-0.66,2.61-0.77,3.68-0.38c7.27,2.64,14.39,5.58,21.3,8.92c8.89,4.31,17.44,9.27,25.53,15.11
			C248.32-1.17,248.66-0.59,248.69,1.09z"/>
		<path style="fill:#80D1AE;" d="M257.84,8.12c-3.47,4.06-6.59,4-9.74,2.01c-6.03-3.8-12.01-4.03-18.17-0.29
			c-3.22,1.96-6.63,2.05-9.94,0.14c-6.63-3.8-13.2-3.63-19.8,0.05c-4.06,2.27-8.22,2.28-12.39,0.26c-7.06-3.41-13.88-2.98-21,0.34
			c-2.46,1.15-6.46,1.1-8.84-0.15c-5.3-2.77-10.15-2.67-15.16-0.05c-5.12,2.67-10.08,2.9-15.02-0.32c-4.06-2.63-8.09-2.6-12.07,0.17
			c-5,3.47-10.08,3.32-15.49,0.83c-2.17-0.99-5.14-2.18-7.07-1.47c-8.3,3.09-17.36,5.07-23.09,12.87c-0.5,0.68-1.39,1.07-2.14,1.58
			c0-0.02,0-0.04,0.01-0.06c-0.01,0.03-0.03,0.05-0.04,0.08c-0.05,0.03-0.09,0.06-0.14,0.09c5.07-6.1,9.2-13.47,15.39-18.05
			c4.64-3.43,9.34-6.76,14.1-10.02l0.29,0.42c8.55,5.07,16.07,8.06,23.46,0.17c1.94-2.07,4.16-1.79,6.18,0
			c6.13,5.44,12.46,6.06,19.11,0.96c0.39-0.3,0.92-0.42,1.33-0.7c2.52-1.71,4.97-1.7,7.27,0.37c4.79,4.31,9.71,4.27,14.76,0.5
			c4.18-3.13,8.42-3.38,12.86-0.45c1.23,0.81,2.82,1.07,4.07,1.87c3.67,2.35,7.21,2.29,10.61-0.36c6.65-5.16,13.07-4.91,19.85,0.01
			c1.57,1.14,5.25,1.52,6.58,0.49c7.3-5.66,13.96-5.44,20.81,0.59c0.98,0.87,2.83,0.75,4.27,1.09c-0.03-1.68-0.37-2.26-0.86-2.62
			c-8.09-5.84-16.64-10.8-25.53-15.11l0.52-1.07c4.49,2.19,8.94,4.42,13.34,6.74c18.3,9.63,30.81,24.51,39.86,42.27l-1.19,0.6
			c-0.35-0.69-0.77-1.46-1.23-2.32c-1.65-3.06-3.62-5.97-5.68-8.78c-0.85-1.17-2.56-1.72-3.43-2.88
			C262.25,14.91,260.26,11.72,257.84,8.12z"/>
		<path style="fill:#7FB5D3;" d="M271.37,62.01c7.53,1.82,14.81,4.83,22.02,7.75c2.11,0.85,4.28,2.94,5.24,5
			c7.8,16.89,12.83,34.5,12.37,53.31c-0.2,7.93-3.22,10.29-10.87,9.81c-8.29-0.51-16.62-0.43-24.93-0.72
			c-26.96-0.94-53.91-2.72-80.87-2.7c-30.11,0.02-60.27,0.98-90.33,2.82c-19.16,1.17-38.11,4.99-56.28,11.85
			c-2.51,0.94-5.93,0.59-8.62-0.22c-19.34-5.84-26.84-18.72-20.39-37.8c3.45-10.22,9.13-19.9,15.12-28.96
			c2.52-3.81,8.18-6.09,12.87-7.81c9.48-3.48,19.32-5.96,28.94-9.1c16.95-5.53,34.47-7.23,52.12-8.37
			c19.6-1.27,39.18-2.9,51.83-3.85C215.09,53.84,243.53,55.28,271.37,62.01z"/>
		<path style="fill:#80D1AE;" d="M201.15-28.23c7.28,3.58,14.52,7.01,21.67,10.52l-0.52,1.07c-6.91-3.34-14.03-6.28-21.3-8.92
			c-1.07-0.39-2.84-0.28-3.68,0.38c-16.49,12.82-38.12,9.65-49.05-3.65c-0.81-0.99-3.3-1.47-4.61-1.03
			c-16.95,5.69-30.86,16.62-46.13,26.41l-0.29-0.42c11.41-7.84,23.09-15.3,34.69-22.85c3.71-2.41,8.17-3.66,12.34-5.47
			c-1.77-4.4-4.03-8.66-5.19-13.19c-3.67-14.26,0.44-26.26,11.46-35.94c1-0.87,2.48-1.45,3.06-2.52
			c6.41-11.84,18.11-14.91,29.71-18.18c0.61-0.17,1.13-0.63,1.69-0.95c1.33,0,2.67,0,4,0c-1.07,1.28-1.9,2.93-3.24,3.78
			c-4.03,2.58-8.25,4.84-13.72,7.98c12.3,1.59,22.42-6.39,34.15-2.14c-3.66,2.02-6.85,3.77-10.65,5.86
			c7.26,0.62,13.69,1.17,20.13,1.72c0.04,0.54,0.08,1.08,0.12,1.62c-3.17,0.98-6.34,1.95-10.35,3.18c2.69,1.73,4.77,3.07,7.48,4.81
			c-2.97,0.62-5.22,1.09-7.89,1.64C214.59-57.99,212.79-42.41,201.15-28.23z"/>
		<path style="fill:#7FB5D3;" d="M112.22,49.22c1.73,1.95,3.16,3.56,5.15,5.8c-4.06,0.41-7.1,0.71-11.51,1.15
			C108.45,53.34,110.16,51.47,112.22,49.22z"/>
		<path style="fill:#7FB5D3;" d="M86.57,59.47c-6.42,1.92-12.07,3.61-19.21,5.74c4.3-4.98,7.59-8.8,11.12-12.89
			C81.16,54.69,83.48,56.74,86.57,59.47z"/>
		<path style="fill:#7FB5D3;" d="M67.93,24.03c-0.01,0.02-0.01,0.04-0.01,0.06c-0.01,0-0.02,0.01-0.03,0.02
			C67.9,24.08,67.92,24.06,67.93,24.03z"/>
		<path style="fill:#7FB5D3;" d="M58.02,68.48c-3.46,1.41-5.96,2.43-9.55,3.9c1.61-3.11,2.69-5.21,4.04-7.83
			C54.34,65.86,55.86,66.94,58.02,68.48z"/>
		<path style="fill:#80D1AE;" d="M48.47,72.38c3.59-1.47,6.09-2.49,9.55-3.9c-2.16-1.54-3.68-2.62-5.51-3.93
			C51.16,67.17,50.08,69.27,48.47,72.38z M105.86,56.17c4.41-0.44,7.45-0.74,11.51-1.15c-1.99-2.24-3.42-3.85-5.15-5.8
			C110.16,51.47,108.45,53.34,105.86,56.17z M67.36,65.21c7.14-2.13,12.79-3.82,19.21-5.74c-3.09-2.73-5.41-4.78-8.09-7.15
			C74.95,56.41,71.66,60.23,67.36,65.21z M256.05,50.78c-1.43,1.56-2.52,2.75-4.38,4.78c3.72,0.56,6.25,0.94,10.09,1.52
			C259.46,54.54,258,52.94,256.05,50.78z M293.39,69.76c-7.21-2.92-14.49-5.93-22.02-7.75c-27.84-6.73-56.28-8.17-91.78-8.99
			c-12.65,0.95-32.23,2.58-51.83,3.85c-17.65,1.14-35.17,2.84-52.12,8.37c-9.62,3.14-19.46,5.62-28.94,9.1
			c-4.69,1.72-10.35,4-12.87,7.81c-5.99,9.06-11.67,18.74-15.12,28.96c-6.45,19.08,1.05,31.96,20.39,37.8
			c2.69,0.81,6.11,1.16,8.62,0.22c18.17-6.86,37.12-10.68,56.28-11.85c30.06-1.84,60.22-2.8,90.33-2.82
			c26.96-0.02,53.91,1.76,80.87,2.7c8.31,0.29,16.64,0.21,24.93,0.72c7.65,0.48,10.67-1.88,10.87-9.81
			c0.46-18.81-4.57-36.42-12.37-53.31C297.67,72.7,295.5,70.61,293.39,69.76z M313,117.03c0,4.67,0,9.33,0,14
			c-2.09,3.82-3.16,8.64-9.07,8.47c-13.64-0.39-27.31-0.44-40.94-1.06c-50.11-2.28-100.22-3.92-150.33-0.36
			c-21.31,1.52-42.43,4.48-62.54,12.14c-4.01,1.52-7.5,1.68-11.54,0.4c-11.27-3.57-19.87-9.85-23.58-21.59c0-4.33,0-8.67,0-13
			c3.72-11.93,8.8-23.23,16.18-33.36c1.8-2.47,4.11-5.04,6.79-6.29c3.71-1.73,5.25-4.52,6.91-7.88c5.99-12.06,12.3-23.95,18.5-35.9
			c1.48-2.84,3-5.67,4.51-8.49c0.01-0.01,0.02-0.02,0.03-0.02c-0.54,2.15-0.81,4.45-1.73,6.43c-1.96,4.23-4.28,8.3-6.45,12.43
			c4.81-3.71,9.03-7.72,12.97-11.98c2.55-2.75,4.5-2.47,7.07-0.01c4.19,3.99,8.66,7.69,13.42,11.88c4.54-4.99,8.9-9.53,12.93-14.34
			c2.68-3.2,4.69-3.51,7.5-0.12c3.99,4.81,8.37,9.3,12.68,14.03c6.78-5.54,13.04-10.66,19.41-15.86
			c4.94,5.26,9.45,10.05,14.14,15.04c5.31-4.52,10.28-8.43,14.87-12.76c2.66-2.51,4.45-2.33,7.11-0.01
			c5.46,4.77,11.23,9.19,16.95,13.81c6.97-5.95,13.4-11.42,20.06-17.11c6.09,5.81,11.84,11.28,17.91,17.06
			c5.94-5.44,11.64-10.65,17.53-16.05c5.61,6.15,10.76,11.79,15.88,17.41c6.88-5.58,7.68-6.21,4.66-12.04l1.19-0.6
			c1.23,2.42,2.4,4.88,3.51,7.4c3.47,7.9,5.83,16.28,8.98,24.33c0.69,1.74,2.59,3.03,4,4.45c2.82,2.86,7.06,5.17,8.28,8.59
			c4.19,11.69,7.34,23.76,10.86,35.69C312.16,113.5,312.55,115.27,313,117.03z"/>
	</g>
	<g>
	</g>
</g>
</svg>
