<?xml version="1.0" encoding="iso-8859-1"?>
<!-- Generator: Adobe Illustrator 18.1.1, SVG Export Plug-In . SVG Version: 6.00 Build 0)  -->
<!DOCTYPE svg PUBLIC "-//W3C//DTD SVG 1.1//EN" "http://www.w3.org/Graphics/SVG/1.1/DTD/svg11.dtd">
<svg version="1.1" id="Layer_1" xmlns="http://www.w3.org/2000/svg" xmlns:xlink="http://www.w3.org/1999/xlink" x="0px" y="0px"
	 viewBox="0 0 55.182 48.198" style="enable-background:new 0 0 55.182 48.198;" xml:space="preserve">
<path style="fill:#554C48;" d="M55.007,47.194c0.333,0.528,0.194,0.778-0.444,0.778c-1.5-0.028-3,0.139-4.5-0.083
	c-0.333-1.389-1.333-2.417-2.056-3.556c-0.278-0.444-0.556-0.833-0.5-1.361c1.194-0.861,1.861-2.306,3.222-3.028
	C52.145,42.306,53.562,44.75,55.007,47.194z"/>
<path style="fill:#605A55;" d="M48.007,44.306c0.722,1.167,1.75,2.167,2.056,3.556c-3.417,0.222-6.833,0.167-10.25,0.028l0,0
	c0.278-4.306,0.806-8.583,1.444-12.861c1.222,0.417,1.583,1.611,2.222,2.528c0.972,1.333,1.806,2.75,2.722,4.139
	c0.361,0.5,0.694,1.028,1.306,1.25C47.451,43.472,47.729,43.861,48.007,44.306z"/>
<path style="fill:#6C6A62;" d="M50.729,39.917c-1.361,0.722-2.028,2.167-3.222,3.028c-0.639-0.222-0.972-0.75-1.306-1.25
	c-0.917-1.389-1.75-2.833-2.722-4.139c-0.667-0.917-1.028-2.111-2.222-2.528c0.056-0.917-0.556-1.583-1.056-2.278
	c-1.444-2.028-2.889-4.083-4.111-6.25c0.222-1.806,1.25-3.333,1.778-5.028c0.222-0.667,0.556-1.333,0.861-2
	c0.5,0.25,0.667,0.75,0.917,1.167C43.34,27.056,47.034,33.472,50.729,39.917z"/>
<path style="fill:#554B47;" d="M40.208,32.663c0.51,0.708,1.104,1.359,1.076,2.322c-0.651,4.332-1.189,8.72-1.472,13.109
	c-0.793,0.057-1.586,0.085-2.35,0.085c-2.803,0.057-5.606-0.028-8.409-0.028c0.028-1.586-0.623-3.058-0.51-4.643
	c0.227-0.34,0.51-0.623,0.651-0.963c1.359-4.077,3.369-7.899,4.785-11.976c0.51-1.472,0.991-3.058,2.067-4.275
	C37.264,28.501,38.736,30.597,40.208,32.663z"/>
<path style="fill:#615A55;" d="M38.443,18.24c0.23,0.374,0.345,0.805,0.488,1.207c-0.287,0.69-0.661,1.351-0.891,2.069
	c-0.546,1.753-1.638,3.333-1.839,5.201c-1.092,1.236-1.58,2.816-2.098,4.339c-1.465,4.109-3.506,7.988-4.856,12.155
	c-0.115,0.374-0.431,0.661-0.661,0.977c-0.287-0.402-0.402-0.862-0.46-1.351c-0.287-3.276-0.92-6.494-1.322-9.741
	c-0.201-1.552-0.718-3.103-0.632-4.684c0.029-0.402-0.057-0.805-0.488-1.006c0.23-0.661,0.92-1.063,0.948-1.81
	c0.374-0.374,0.776-0.776,1.149-1.149c0.23,0.144-0.589,0.916-0.445,0.744c1.207-1.667,3.663-3.933,4.928-5.542
	c0.488-0.632,1.293-1.063,1.408-1.954v-0.057c0.23,0.029,0.488,0.086,0.632-0.144c0.115-0.23-0.086-0.345-0.259-0.402
	c0.603-1.092,1.207-2.184,1.81-3.276c0.029,0.057,0.086,0.086,0.144,0.115C36.777,15.337,37.61,16.774,38.443,18.24z"/>
<path style="fill:#FCE9E3;" d="M32.395,7.972C33.507,10,34.618,12,35.757,14.028c-0.583,1.056-1.167,2.111-1.75,3.167
	c-0.111,0.194-0.222,0.361-0.361,0.556v0.028c-0.583,0.361-0.528-0.278-0.639-0.472c-0.639-1.028-1.222-2.083-1.917-3.278
	c-0.806,1.417-1.528,2.639-2.333,4.056c-0.806-1.417-1.556-2.667-2.333-4.028c-0.806,1.417-1.556,2.639-2.333,4
	c-0.806-1.389-1.556-2.639-2.361-4c-0.806,1.389-1.528,2.639-2.306,3.972c-0.417-0.667-0.75-1.194-1.083-1.75
	c0.083-0.917,0.722-1.611,1.139-2.361C22.118,9.306,24.812,4.722,27.534,0C29.368,2.639,30.562,5.5,32.395,7.972z"/>
<path style="fill:#574D4A;" d="M33.007,17.306c0.111,0.222,0.083,0.833,0.639,0.472c-0.111,0.889-0.917,1.306-1.361,1.889
	c-1.222,1.556-2.694,2.889-3.833,4.528c-0.111,0.194-0.278,0.25-0.5,0.111c0.528-1.833,0.083-3.139-1.333-3.694
	c-0.722-0.278-1.278-0.667-1.806-1.167c-1.528-1.333-3.444-1.694-5.139-0.972L19.395,18c0.778-1.361,1.5-2.611,2.306-3.972
	c0.806,1.361,1.528,2.611,2.361,4c0.778-1.361,1.528-2.611,2.333-4c0.806,1.389,1.528,2.611,2.333,4.028
	c0.806-1.389,1.528-2.639,2.333-4.056C31.784,15.194,32.368,16.278,33.007,17.306z"/>
<path style="fill:#6C6962;" d="M28.701,43.389c-0.083,1.556,0.528,3.028,0.5,4.556c-2.667,0-5.306,0-7.972,0
	c-0.417-1.417-1.444-2.5-2.139-3.778c-0.917-1.667-2.222-3.139-2.972-4.944c0.417-1.528,1.694-2.444,2.583-3.611
	c0.25-0.333,0.611-0.611,0.694-1.056c2.306-2.361,4.278-4.972,6.472-7.444c0.417,0.194,0.5,0.583,0.472,0.972
	c-0.083,1.556,0.417,3,0.611,4.528c0.389,3.139,1,6.25,1.278,9.417C28.312,42.556,28.451,43,28.701,43.389z"/>
<path style="fill:#554C48;" d="M26.868,25.417c-0.056,0.722-0.694,1.111-0.917,1.75c-2.167,2.444-4.167,5.083-6.472,7.444
	c-0.778-2.056-1.278-4.194-1.861-6.278c-0.222-0.833-0.639-1.639-0.472-2.583c1.417-0.083,2.722-0.5,3.75-1.556
	c0.5-0.528,0.861-0.194,1.25,0.139C23.562,25.472,25.062,26.056,26.868,25.417z"/>
<path style="fill:#554B48;" d="M21.284,47.944c-4.222,0-8.444-0.028-12.667-0.028l0,0c0.833-1.611,2.222-2.833,3.333-4.25
	c1.056-1.333,2.194-2.583,3.278-3.861c0.25-0.306,0.5-0.611,0.944-0.583c0.722,1.806,2.028,3.278,2.972,4.944
	C19.84,45.417,20.868,46.5,21.284,47.944z"/>
<path style="fill:#615A55;" d="M18.784,35.639c-0.917,1.194-2.167,2.083-2.583,3.611c-0.444-0.028-0.694,0.278-0.944,0.583
	c-1.111,1.278-2.25,2.528-3.278,3.861c-1.111,1.417-2.5,2.611-3.333,4.25c-0.639,0-1.333,0.028-1.972,0.028
	C4.701,48,2.729,48,0.757,48.028c-0.806,0-0.944-0.25-0.528-0.944c3.972-6.833,7.917-13.667,11.889-20.5
	c0.472-0.806,0.917-1.611,1.333-2.444c1.056,0.583,1.917,1.528,3.25,1.472c0.167,0.056,0.333,0.083,0.472,0.139
	c-0.194,0.917,0.222,1.75,0.472,2.583C18.201,30.417,19.034,35.278,18.784,35.639z"/>
<polygon style="fill:#574D4A;" points="16.701,25.611 24.513,28.783 30.622,21.387 21.78,17.368 19.395,18 18.34,16.278 
	13.451,24.139 "/>
<polygon style="fill:#615A55;" points="19.368,34.249 16.233,19.619 13.451,24.139 18.784,35.639 "/>
<polyline style="fill:#615A55;" points="19.77,34.49 18.001,36.5 18.805,32.079 "/>
<polyline style="fill:#615A55;" points="34.067,17.153 33.905,17.383 33.259,18.302 33.186,18.407 35.284,19.807 36.414,18.258 
	34.239,16.773 "/>
</svg>
