<?xml version="1.0" encoding="iso-8859-1"?>
<!-- Generator: Adobe Illustrator 18.1.1, SVG Export Plug-In . SVG Version: 6.00 Build 0)  -->
<!DOCTYPE svg PUBLIC "-//W3C//DTD SVG 1.1//EN" "http://www.w3.org/Graphics/SVG/1.1/DTD/svg11.dtd">
<svg version="1.1" id="Layer_1" xmlns="http://www.w3.org/2000/svg" xmlns:xlink="http://www.w3.org/1999/xlink" x="0px" y="0px"
	 viewBox="0 0 571.124 604" style="enable-background:new 0 0 571.124 604;" xml:space="preserve">
<g>
	<g id="XMLID_3_">
		<path style="fill:#F2E8E7;" d="M567.783,428.59c3.61,1.77,4.24,3.47,2.15,6.86c-2.81,4.53-5.46,9.18-7.74,13.99
			c-1.84,3.88-3.72,4.52-7.68,2.47c-16.43-8.5-33.03-16.65-49.58-24.92c-5.73-2.87-5.8-2.86-5.62,3.74
			c0.26,9.82,0.47,19.65,1.04,29.45c0.27,4.68-1.52,6.23-6.01,6.08c-5.49-0.17-11.03-0.2-16.48,0.34c-3.93,0.38-5.02-1.01-5.09-4.6
			c-0.24-11.83-0.65-23.64-1.03-35.46c-0.09-2.66-0.79-5.38-0.43-7.96c1.04-7.38-3.07-10.76-9.11-13.28
			c-5.14-2.15-10.03-4.87-15.59-7.6c0.89,23.94,1.77,47.03,2.57,70.12c0.31,8.86,0.14,8.97-8.56,9.19
			c-4.66,0.11-9.33,0.08-13.99,0.27c-3.32,0.13-4.78-1.12-4.88-4.61c-0.55-18.31-1.28-36.61-1.94-54.92
			c-0.35-9.98-0.77-19.96-0.96-29.95c-0.06-2.92-1.19-4.64-3.74-5.82c-2.27-1.04-4.36-2.46-6.61-3.53
			c-1.42-0.67-2.98-2.41-4.49-1.14c-1.3,1.1-0.68,3.17-0.46,4.78c1.45,10.78,0.06,21.66,1.31,32.44c0.29,2.56-1.25,3.53-3.64,3.64
			c-6.82,0.31-13.65-0.09-20.48,0.62c-3.61,0.38-3.61-2.64-3.68-5.21c-0.43-14.99-1.05-29.97-1.15-44.96
			c-0.03-4.79-1.46-7.41-5.9-9.57c-21.86-10.66-43.54-21.72-65.29-32.61c-5.18-2.59-5.39-2.46-5.39,3.42
			c-0.02,23.66,0.06,47.33-0.07,71c-0.02,3.63,1.18,5.72,4.43,7.44c14.28,7.55,28.35,15.52,42.68,22.99c4.07,2.12,4.43,4,2.02,7.6
			c-2.97,4.42-5.63,9.06-8.16,13.75c-1.85,3.42-3.83,3.8-7.19,1.89c-9.42-5.36-18.98-10.43-28.52-15.56
			c-5.09-2.73-4.56-2.58-5.33,2.79c-1.19,8.28,2.39,12.4,9.53,16.08c23.69,12.22,46.96,25.25,70.51,37.74
			c4.36,2.31,5.6,4.36,2.46,8.67c-2.82,3.9-5.16,8.18-7.37,12.47c-2,3.9-4.1,4.72-8.2,2.45c-20.55-11.38-41.25-22.48-61.9-33.68
			c-4.72-2.56-4.84-2.52-4.89,2.84c-0.04,5.16,0.22,10.34-0.08,15.49c-0.23,3.91,1.36,6.07,4.71,7.84
			c14.28,7.56,28.42,15.41,42.71,22.95c3.37,1.78,4.43,3.32,2.05,6.83c-3.07,4.54-5.83,9.34-8.34,14.22c-1.93,3.75-4,3.92-7.49,1.94
			c-9.56-5.42-19.35-10.44-28.95-15.81c-3.51-1.95-4.73-1.81-4.7,2.72c0.1,19.83-0.09,39.66-0.18,59.49c-9,0-18,0-27,0
			c-0.09-19.49-0.18-38.99-0.26-58.48c-0.03-5.97-0.05-6.01-5.43-3.13c-9.7,5.18-19.4,10.36-29.02,15.67
			c-2.76,1.53-4.4,1.29-5.98-1.63c-2.7-4.98-5.55-9.9-8.72-14.58c-2.63-3.86-1.34-5.61,2.35-7.54
			c13.73-7.19,27.24-14.79,40.98-21.93c4.2-2.18,6.36-4.73,5.91-9.69c-0.43-4.79-0.23-9.66-0.05-14.48
			c0.15-3.94-0.64-5.25-4.68-3.02c-20.14,11.08-40.4,21.96-60.58,32.98c-6.77,3.69-6.7,3.76-10.54-2.88
			c-2.33-4.04-4.57-8.15-7.15-12.03c-2.17-3.25-1.74-5.02,1.84-6.91c14.73-7.78,29.32-15.84,43.96-23.79
			c10.54-5.72,20.94-11.73,31.69-17.03c4.81-2.38,5.63-5.65,5.49-10.36c-0.28-9.69,0.91-9.5-8-4.73
			c-8.52,4.56-17.04,9.13-25.39,13.98c-3.8,2.2-5.91,1.48-7.89-2.32c-2.54-4.87-5.4-9.59-8.39-14.19c-1.95-3.01-1.27-4.56,1.77-6.17
			c13.82-7.36,27.45-15.1,41.36-22.28c4.76-2.45,6.67-5.31,6.6-10.8c-0.31-22.99-0.12-45.99-0.14-68.99
			c-0.01-5.64-0.23-5.79-5.11-3.35c-22.35,11.17-44.66,22.44-67.06,33.53c-3.12,1.54-4.29,3.49-4.35,6.95
			c-0.24,14.99-0.74,29.97-1.16,44.95c-0.21,7.29-0.22,7.15-7.37,6.71c-5.32-0.32-10.66-0.25-15.99-0.27
			c-3.39-0.01-4.7-1.37-4.37-4.93c1.01-10.78-0.08-21.65,1.32-32.43c0.53-4.06-0.88-4.17-4.49-2.85c-8.2,2.99-11.28,7.74-11.3,17.02
			c-0.07,25.79-1.67,51.57-2.52,77.36c-0.12,3.68-1.49,5.07-5.09,4.93c-5.49-0.23-11-0.3-16.49-0.27c-4.39,0.03-6.16-1.72-5.98-6.34
			c0.9-22.79,1.47-45.6,2.37-68.39c0.14-3.48-0.39-4.29-3.61-2.64c-5.92,3.04-11.91,5.96-17.9,8.87c-1.94,0.94-2.45,2.52-2.54,4.48
			c-0.24,5.82-0.61,11.63-0.82,17.45c-0.38,10.65-0.72,21.3-1.01,31.96c-0.08,3-0.9,4.5-4.46,4.22c-5.97-0.48-11.99-0.49-17.98-0.41
			c-3.97,0.06-5.26-1.65-5.09-5.44c0.46-10.48,0.61-20.97,1.12-31.45c0.22-4.46-1.16-4.74-4.79-2.89
			c-16.92,8.61-33.98,16.97-50.89,25.62c-3.42,1.75-5.27,1.49-7-2.13c-2.38-4.94-5.13-9.73-8-14.41c-2.01-3.29-1.69-5.07,2.02-6.89
			c17.2-8.44,34.26-17.16,51.37-25.79c1.15-0.59,2.96-0.73,3.15-2.14c0.25-1.87-1.85-2.08-3.02-2.81
			c-9.32-5.82-18.64-11.66-28.08-17.29c-3.26-1.95-4.1-3.74-1.63-7.03c3.4-4.53,6.52-9.28,9.49-14.1c1.95-3.15,3.81-3.35,6.89-1.42
			c13.81,8.7,27.81,17.12,41.62,25.83c3.18,2.01,5.74,2.32,9.14,0.39c6.04-3.44,12.39-6.35,19.47-9.91
			c-9.98-6.17-19.25-11.92-28.54-17.64c-12.07-7.42-24.09-14.9-36.26-22.16c-3.46-2.06-4.4-3.91-1.79-7.4
			c3.29-4.4,6.34-9,9.17-13.71c2.03-3.36,3.95-3.53,7.22-1.5c24.21,15.02,48.59,29.76,72.73,44.9c4.1,2.57,7.33,3.03,11.34,0.44
			c2.6-1.69,5.54-2.86,9.14-4.67c-10.29-6.33-19.8-12.09-29.22-18c-9.24-5.79-7.71-4.08-2.71-11.94c2.32-3.65,4.99-7.1,7.19-10.82
			c1.93-3.28,3.76-3.83,7.16-1.68c13.79,8.75,27.79,17.15,41.61,25.85c2.83,1.78,5.08,2.2,8.22,0.6
			c21.23-10.81,42.57-21.4,63.85-32.12c1.25-0.63,3.36-0.84,3.19-2.67c-0.14-1.62-2.13-1.89-3.43-2.54
			c-21.13-10.64-42.29-21.21-63.39-31.91c-3.17-1.61-5.56-1.44-8.68,0.55c-13.77,8.77-27.8,17.13-41.65,25.77
			c-2.85,1.77-4.78,1.59-6.63-1.3c-3.15-4.9-6.36-9.78-9.78-14.5c-2.05-2.81-1.74-4.48,1.29-6.3c10.14-6.09,20.16-12.38,30.22-18.61
			c0.68-0.42,1.29-0.96,2.3-1.73c-4.16-2.8-8.38-4.65-12.59-6.5c-2.61-1.14-4.48,0.46-6.44,1.66
			c-24.4,15.03-48.84,29.99-73.14,45.18c-3.62,2.27-5.68,2.3-7.95-1.54c-2.71-4.58-5.75-8.99-8.98-13.22
			c-2.61-3.42-1.87-5.26,1.66-7.4c19.93-12.11,39.76-24.4,59.6-36.66c1.37-0.85,3.61-1.29,3.52-3.15c-0.08-1.85-2.39-2.03-3.78-2.81
			c-2.18-1.22-4.73-1.92-6.64-3.45c-8.42-6.73-15.81-4.82-24.04,1.04c-10.57,7.52-22.05,13.75-32.97,20.8
			c-3.63,2.34-6,2.59-8.42-1.51c-2.78-4.73-5.91-9.28-9.19-13.68c-2.35-3.15-1.48-4.86,1.58-6.68c9.59-5.71,19.07-11.59,28.58-17.43
			c1.1-0.67,2.87-1.01,2.83-2.51c-0.04-1.51-1.83-1.74-2.97-2.31c-17.12-8.61-34.22-17.27-51.42-25.71c-3.45-1.69-4.48-3.29-2.3-6.8
			c2.98-4.81,5.75-9.78,8.22-14.87c1.71-3.49,3.6-3.48,6.72-1.9c16.94,8.6,33.95,17.04,50.95,25.52c4.76,2.37,4.95,2.29,4.8-2.98
			c-0.27-10.32-0.56-20.64-1.06-30.95c-0.2-4.08,1.3-5.73,5.41-5.71c5.49,0.02,11,0.38,16.46-0.55c4.11-0.69,5.63,1.05,5.74,5.21
			c0.42,15.47,1.22,30.94,1.63,46.41c0.1,3.83,1.38,6.14,4.91,7.72c5.47,2.44,10.77,5.27,16.12,7.98c2.59,1.32,3.32,0.95,3.2-2.23
			c-0.9-22.79-1.63-45.59-2.32-68.4c-0.19-6.67-0.04-6.72,6.54-6.88c5.33-0.12,10.66-0.04,15.99-0.26c3.29-0.13,4.82,0.91,4.93,4.48
			c0.54,18.47,1.28,36.93,1.93,55.4c0.36,9.99,0.82,19.97,0.96,29.96c0.04,3.56,2.12,4.89,4.78,6.19
			c10.46,5.15,10.4,5.18,10.02-6.13c-0.31-8.99-0.38-17.99-0.72-26.97c-0.12-2.96,1.3-3.79,3.87-3.88
			c5.99-0.2,11.98-0.37,17.96-0.79c4.28-0.3,5.91,1.34,5.97,5.7c0.23,15.15,0.92,30.29,1.09,45.45c0.04,4.22,1.38,6.5,5.25,8.4
			c21.99,10.79,43.82,21.89,65.71,32.86c5.51,2.75,5.59,2.69,5.59-3.53c0.01-23.5-0.08-47,0.09-70.5c0.03-3.87-1.28-6.03-4.67-7.82
			c-14.43-7.64-28.69-15.6-43.11-23.25c-3.31-1.76-3.89-3.36-1.78-6.54c3.04-4.57,5.91-9.29,8.39-14.18
			c2.04-4.03,4.21-4.06,7.83-1.99c9.4,5.37,18.99,10.41,28.52,15.55c4.56,2.45,4.15,2.27,4.86-2.93c1.11-8.18-2.21-12.36-9.49-16.1
			c-24-12.32-47.52-25.59-71.32-38.3c-3.61-1.93-4.58-3.63-2.18-7.21c2.78-4.14,5.46-8.42,7.58-12.92c2.15-4.54,4.42-5.16,8.86-2.7
			c20.25,11.24,40.67,22.15,61.02,33.21c5.32,2.89,5.37,2.91,5.4-2.95c0.03-5.33-0.13-10.67,0.06-16c0.11-3.28-1.21-5.14-4.07-6.66
			c-14.29-7.55-28.43-15.38-42.75-22.87c-3.99-2.09-5-4-2.22-7.96c3.05-4.35,5.63-9.06,8.09-13.79c1.7-3.28,3.5-3.73,6.7-1.94
			c9.59,5.36,19.3,10.53,29.01,15.68c4.83,2.56,5.15,2.32,5.18-3.19c0.1-19.49,0.18-38.99,0.27-58.48c9,0,18,0,27,0
			c0.09,19.49,0.18,38.99,0.26,58.48c0.03,6.03,0.02,6.02,5.4,3.12c9.67-5.23,19.4-10.37,29.01-15.71c2.99-1.67,4.69-1.25,6.34,1.84
			c2.66,4.99,5.57,9.88,8.68,14.6c2.17,3.31,1.68,5.05-1.9,6.92c-14.02,7.34-27.82,15.1-41.87,22.4c-4.25,2.21-6.16,4.93-5.75,9.79
			c0.41,4.8,0.2,9.66,0.06,14.49c-0.11,3.61,0.46,4.95,4.36,2.81c19.86-10.91,39.83-21.62,59.77-32.38
			c8.57-4.63,7.41-4.95,12.26,3.35c2.19,3.74,4.3,7.53,6.71,11.12c2.09,3.11,1.51,4.83-1.81,6.6
			c-19.54,10.45-38.98,21.09-58.46,31.66c-5.71,3.09-11.32,6.44-17.21,9.13c-4.49,2.05-5.86,4.99-5.69,9.77
			c0.33,9.71,0.1,9.76,8.61,5.17c8.5-4.58,17.01-9.17,25.43-13.92c3.13-1.76,5.08-1.31,6.83,1.9c2.72,4.96,5.6,9.86,8.72,14.58
			c2.07,3.14,1.61,4.74-1.77,6.52c-14.44,7.62-28.7,15.58-43.12,23.23c-3.37,1.79-4.71,3.94-4.68,7.83
			c0.17,23.67,0.07,47.34,0.09,71c0.01,5.66,0.2,5.78,5.09,3.32c22.48-11.28,44.93-22.64,67.45-33.84c3.01-1.5,3.89-3.54,3.95-6.71
			c0.3-15.32,0.94-30.64,1.13-45.96c0.05-4.83,1.84-6.77,6.54-6.1c5.63,0.81,11.3,0.76,16.96,0.72c3.45-0.02,4.69,1.37,4.33,4.91
			c-1.12,10.94,0.08,21.99-1.34,32.93c-0.45,3.4,0.74,4.16,3.91,2.46c13.56-7.23,11.05-3.2,11.57-18.06
			c0.9-25.46,1.96-50.91,2.81-76.37c0.12-3.63,1.32-5.08,5.01-4.91c5.83,0.28,11.67,0.35,17.5,0.25c3.98-0.07,5.17,1.68,5.03,5.47
			c-0.84,23.13-1.43,46.27-2.38,69.4c-0.16,3.94,0.94,3.93,3.75,2.49c5.48-2.82,10.93-5.72,16.5-8.35c2.82-1.32,3.8-3.28,3.9-6.27
			c0.51-15.31,1.2-30.61,1.74-45.92c0.22-6.57,0.7-6.92,7.4-6.39c4.97,0.4,9.99,0.42,14.98,0.36c3.85-0.05,5.36,1.52,5.18,5.4
			c-0.48,10.48-0.64,20.98-1.13,31.45c-0.2,4.2,0.81,4.94,4.67,2.97c16.77-8.56,33.71-16.81,50.46-25.4
			c3.72-1.9,5.88-1.93,7.79,2.23c2.15,4.68,4.69,9.22,7.51,13.54c2.67,4.09,1.38,5.87-2.65,7.83c-16.77,8.17-33.4,16.65-50.07,25.04
			c-1.3,0.66-3.36,0.89-3.54,2.43c-0.23,2.02,2.13,2.26,3.43,3.08c9.17,5.75,18.36,11.5,27.66,17.04c3.35,1.99,3.9,3.87,1.53,7.08
			c-3.37,4.55-6.5,9.29-9.47,14.11c-1.83,2.95-3.57,3.22-6.48,1.4c-14.13-8.83-28.41-17.42-42.52-26.28
			c-2.76-1.74-4.98-1.93-7.8-0.36c-5.09,2.84-10.3,5.47-15.54,8.02c-3.53,1.71-3.78,2.93-0.18,5.12
			c19.92,12.13,39.69,24.53,59.66,36.58c4.09,2.47,5.08,4.44,1.98,8.44c-3.36,4.33-6.22,9.06-9.18,13.69
			c-1.7,2.67-3.34,2.91-6.11,1.18c-24.04-14.96-48.26-29.66-72.24-44.74c-4.79-3.02-8.83-3.93-13.63-0.57
			c-2.15,1.51-4.69,2.46-7.1,3.68c0.51,2.4,2.62,2.62,4.05,3.52c9.17,5.76,18.33,11.56,27.63,17.1c3.1,1.84,4.01,3.4,1.66,6.57
			c-3.37,4.55-6.48,9.3-9.47,14.11c-2.06,3.33-4.15,3.49-7.36,1.47c-13.69-8.59-27.55-16.92-41.23-25.52
			c-3.01-1.9-5.44-2.11-8.69-0.46c-21.09,10.72-42.29,21.24-63.43,31.86c-1.28,0.64-3.3,0.88-3.38,2.56c-0.09,1.8,2,2,3.25,2.63
			c21.29,10.72,42.62,21.33,63.87,32.11c2.89,1.47,5.05,1.34,7.79-0.38c13.68-8.61,27.59-16.85,41.19-25.59
			c4.16-2.67,6.35-1.89,8.67,2.03c2.71,4.58,5.65,9.05,8.79,13.35c2.1,2.87,1.66,4.51-1.34,6.3c-9.44,5.64-18.77,11.47-28.12,17.26
			c-1.35,0.84-3.1,1.26-3.88,3.4c3.96,2.04,7.93,4.08,11.89,6.14c2.39,1.26,4.15-0.22,5.97-1.34c21.71-13.36,43.41-26.74,65.12-40.1
			c3.41-2.1,6.92-4.03,10.23-6.27c2.53-1.7,4.16-1.18,5.75,1.26c3.18,4.88,6.46,9.71,9.83,14.47c2.21,3.11,1.78,5.07-1.62,7.13
			c-20.36,12.38-40.61,24.94-60.89,37.44c-1.11,0.69-2.2,1.42-4.16,2.69c8.19,4.02,15.7,7.76,23.26,11.38
			c1.8,0.86,3.15-0.64,4.53-1.49c13.76-8.48,27.6-16.82,41.2-25.56c4.26-2.74,6.59-2.31,9.04,2.08c2.42,4.35,5.34,8.46,8.4,12.41
			c2.65,3.42,1.88,5.36-1.63,7.43c-9.33,5.51-18.52,11.23-27.72,16.95c-1.21,0.75-3.28,1.18-3.16,2.83
			c0.12,1.57,2.13,1.88,3.44,2.55C533.833,411.57,550.743,420.21,567.783,428.59z"/>
	</g>
</g>
</svg>
