<?xml version="1.0" encoding="iso-8859-1"?>
<!-- Generator: Adobe Illustrator 18.1.1, SVG Export Plug-In . SVG Version: 6.00 Build 0)  -->
<!DOCTYPE svg PUBLIC "-//W3C//DTD SVG 1.1//EN" "http://www.w3.org/Graphics/SVG/1.1/DTD/svg11.dtd">
<svg version="1.1" xmlns="http://www.w3.org/2000/svg" xmlns:xlink="http://www.w3.org/1999/xlink" x="0px" y="0px"
	 viewBox="0 0 4.484 4.778" style="enable-background:new 0 0 4.484 4.778;" xml:space="preserve">
<g id="snowflake">
	<g>
		<g id="XMLID_5_">
			<g>
				<path style="fill:#FCE9E3;" d="M4.472,3.444c0,0.028,0,0.028,0,0.056c-0.028,0-0.056,0-0.083,0
					C4.333,3.472,4.306,3.444,4.25,3.417l0,0l0,0c0,0.056,0,0.083,0.028,0.139c0,0.028,0,0.056-0.028,0.056S4.194,3.583,4.194,3.556
					c0-0.056-0.028-0.111-0.028-0.194c0-0.028,0-0.028-0.028-0.056C4.083,3.278,4.028,3.25,3.944,3.222c0,0.028,0,0.056,0,0.083
					c0,0.083,0,0.139,0.028,0.222c0,0.028,0,0.056-0.028,0.056c-0.028,0-0.056-0.028-0.056-0.056c0-0.028,0-0.056,0-0.056
					c0-0.083,0-0.167-0.028-0.25c0-0.028,0-0.056-0.028-0.056C3.778,3.139,3.694,3.111,3.639,3.056c0,0.111,0,0.222,0,0.333
					c0,0.028,0.028,0.028,0.056,0.056C3.722,3.472,3.75,3.472,3.75,3.472l0,0c-0.028,0.028-0.056,0-0.083,0
					c-0.028-0.028-0.028,0-0.028,0.028c0,0.028,0,0.056-0.028,0.056c-0.028,0.028-0.056,0-0.056-0.056c0-0.139,0-0.306,0-0.444
					C3.556,3,3.528,3,3.5,2.972C3.444,2.944,3.389,2.917,3.333,2.889c-0.028-0.028-0.028,0-0.028,0.028c0,0.056,0,0.083,0.056,0.111
					c0.028,0,0.056,0.028,0.028,0.056c-0.028,0.028-0.028,0-0.056,0c-0.028-0.028-0.028,0-0.028,0.028c0,0.056,0,0.111,0.083,0.139
					c0.028,0,0.056,0,0.028,0.028c0,0.028-0.028,0-0.056,0C3.306,3.25,3.306,3.25,3.306,3.306s0.028,0.083,0.056,0.111
					c0,0,0.028,0,0.028,0.028c0,0,0.028,0.028,0,0.028c0,0.028-0.028,0-0.028,0H3.333C3.306,3.444,3.278,3.444,3.25,3.5
					c0,0.028,0,0.028-0.028,0.028c0,0-0.028,0-0.028-0.028c0-0.028,0-0.028,0-0.056c0-0.194,0-0.361,0-0.556
					c0-0.028,0-0.056-0.056-0.083C3.083,2.778,3.028,2.75,2.944,2.694c0,0.083,0,0.167,0,0.278c0,0.028,0,0.083,0,0.139
					c0,0.028,0,0.056-0.028,0.056S2.889,3.139,2.889,3.111c0-0.139,0-0.25,0-0.389c0-0.028,0-0.056-0.028-0.056
					c0,0-0.028-0.028,0-0.028l0,0c0-0.028,0.028-0.028,0.028,0c0.028,0.028,0.056,0,0.056,0c0.111-0.083,0.25-0.167,0.361-0.222
					l0.028-0.028c0,0,0.028,0,0.028,0.028c0.028,0.028,0,0.056-0.028,0.056C3.222,2.556,3.111,2.611,2.972,2.694
					C3.056,2.75,3.139,2.778,3.194,2.806c0.028,0,0.028,0,0.056-0.028C3.361,2.694,3.5,2.639,3.611,2.556
					c0.028-0.028,0.056-0.028,0.083,0c0.028,0.028,0,0.056-0.028,0.056C3.639,2.639,3.611,2.639,3.583,2.667
					c0.028,0.028,0.056,0.028,0.083,0.028l0.028,0.028l0,0H3.667l0,0c-0.083-0.056-0.139-0.056-0.222,0
					C3.417,2.75,3.389,2.75,3.333,2.778c0.083,0.028,0.139,0.083,0.222,0.111c0.028,0,0.028,0,0.056,0
					C3.667,2.861,3.694,2.833,3.75,2.806C3.833,2.75,3.917,2.722,3.972,2.667c0.028-0.028,0.056-0.028,0.083,0
					c0.028,0.028,0,0.056-0.028,0.056C4,2.75,3.972,2.75,3.944,2.778C3.972,2.806,4,2.806,4.028,2.833l0.028,0.028c0,0,0,0-0.028,0
					H4l0,0C3.972,2.833,3.917,2.806,3.889,2.806C3.806,2.833,3.75,2.889,3.694,2.917c-0.028,0,0,0.028,0,0.028
					C3.75,2.972,3.833,3,3.889,3.056c0.028,0,0.028,0,0.056,0C4,3.028,4.028,3,4.083,2.972c0.056-0.028,0.083-0.056,0.139-0.083
					c0.028,0,0.056-0.028,0.083,0c0.028,0.028,0,0.056-0.028,0.056C4.194,3,4.111,3.028,4,3.083
					c0.056,0.028,0.111,0.056,0.167,0.083c0.028,0,0.028,0,0.056,0c0.056-0.028,0.111-0.056,0.167-0.083
					c0.028,0,0.056-0.028,0.083,0c0.028,0.028,0,0.056-0.028,0.056C4.389,3.167,4.361,3.194,4.306,3.222
					C4.333,3.389,4.389,3.417,4.472,3.444z"/>
				<path style="fill:#FCE9E3;" d="M4.389,1.083c0.028,0.028-0.028,0.056-0.028,0.056C4.306,1.167,4.278,1.194,4.222,1.222
					C4.278,1.25,4.306,1.278,4.361,1.278c0.028,0,0.056,0.028,0.056,0.056c-0.028,0.028-0.056,0.028-0.083,0H4.306
					C4.111,1.25,4.111,1.25,3.944,1.389c0.083,0.056,0.139,0.083,0.222,0.139c0,0,0.028,0,0.028,0.028
					C4.222,1.583,4.25,1.583,4.222,1.611c-0.028,0.028-0.056,0.028-0.083,0c-0.028,0-0.056-0.028-0.056-0.028
					C4.028,1.556,3.944,1.5,3.889,1.472c-0.028-0.028-0.056-0.028-0.083,0C3.75,1.5,3.694,1.556,3.611,1.583
					C3.722,1.639,3.806,1.694,3.889,1.75c0.028,0.028,0.056,0,0.083-0.028C4,1.722,4,1.694,4.028,1.694c0,0,0,0,0.028,0.028
					S4.028,1.75,4,1.778c0,0-0.028,0-0.028,0.028C4,1.806,4,1.833,4.028,1.833c0.028,0.028,0.028,0.028,0.028,0.056
					C4.028,1.917,4.028,1.917,4,1.889C3.944,1.861,3.917,1.833,3.861,1.806C3.778,1.75,3.694,1.694,3.611,1.639
					c-0.028-0.028-0.056-0.028-0.083,0C3.472,1.667,3.417,1.722,3.333,1.75c0.056,0.056,0.083,0.056,0.139,0.028
					C3.5,1.75,3.5,1.75,3.528,1.778c0.028,0.028,0,0.028-0.028,0.056s-0.028,0.028,0,0.056c0.056,0.028,0.111,0.056,0.167,0h0.028
					h0.028v0.028C3.694,1.944,3.667,1.944,3.639,1.972C3.667,2,3.694,2.028,3.75,2.028C3.778,2.056,3.806,2,3.833,2
					c0.028,0,0.056-0.056,0.083-0.028C3.944,2,3.889,2,3.861,2.028c-0.028,0.028-0.056,0.028,0,0.056
					c0.028,0,0.028,0.028,0.028,0.056c-0.028,0.028-0.028,0.028-0.056,0C3.694,2.056,3.556,2,3.444,1.917
					c-0.111-0.083-0.194-0.083-0.306,0C3.111,1.944,3.083,1.944,3.056,1.972C3.139,2.028,3.194,2.056,3.25,2.111
					c0.028,0.028,0.083,0.056,0.111,0.083C3.389,2.222,3.417,2.222,3.389,2.25L3.361,2.278c-0.028,0-0.028,0-0.056-0.028
					C3.222,2.194,3.111,2.139,3.028,2.056C3,2.028,2.972,2,2.917,2.028H2.889l0,0c0-0.028,0-0.028,0-0.028
					c0.028,0,0.028-0.028,0.028-0.056c0-0.139,0-0.278,0-0.417c0-0.028,0-0.056,0.028-0.056S2.972,1.5,2.972,1.528
					c0,0.111,0,0.25,0,0.361c0,0.056,0,0.056,0.056,0.028c0.056-0.028,0.111-0.056,0.167-0.083c0.028-0.028,0.028-0.028,0.028-0.056
					c0-0.139,0-0.278,0-0.389V1.361c0-0.028,0-0.056,0.056-0.056c0.028,0,0.028,0.028,0.028,0.056c0,0.028,0,0.056,0,0.111
					c0.028-0.028,0.056-0.028,0.083-0.056c0,0,0.028-0.028,0.028,0l0,0c0,0,0,0.028-0.028,0.028l0,0
					C3.278,1.472,3.278,1.556,3.278,1.639c0,0.139,0,0.111,0.111,0.056C3.5,1.639,3.528,1.583,3.528,1.472c0-0.028,0-0.056,0-0.083
					c0-0.083,0-0.167,0-0.25c0-0.028,0-0.056,0.056-0.056c0.028,0,0.028,0.028,0.028,0.056s0,0.056,0,0.111
					c0.028,0,0.056-0.028,0.083-0.028c0.028,0,0.028-0.028,0.056,0l0,0L3.722,1.25C3.639,1.278,3.611,1.361,3.611,1.444
					c0,0.028,0,0.083,0,0.139C3.694,1.528,3.75,1.5,3.833,1.472c0.028,0,0-0.028,0.028-0.056c0-0.056,0-0.111,0.028-0.167
					c0-0.056,0-0.111,0-0.167c0-0.028,0-0.056,0.056-0.056c0.028,0,0.028,0.028,0.028,0.056c0,0.111-0.028,0.194-0.028,0.306
					C4,1.361,4.056,1.333,4.111,1.278C4.139,1.25,4.139,1.222,4.139,1.194c0-0.056,0.028-0.111,0.028-0.167
					c0-0.028,0.028-0.056,0.056-0.056C4.25,0.972,4.25,1,4.25,1.028c0,0.056,0,0.111-0.028,0.167l0,0l0,0
					c0.056-0.028,0.111-0.056,0.167-0.083C4.361,1.083,4.389,1.056,4.389,1.083z"/>
				<path style="fill:#FCE9E3;" d="M2.833,0.944c0,0.028,0,0.028,0,0.056L2.806,1.028c-0.167,0.083-0.333,0.167-0.472,0.25
					C2.306,1.306,2.278,1.306,2.306,1.361c0,0.056,0,0.111,0,0.167c0,0.056,0.028,0.056,0.056,0.028
					C2.444,1.5,2.556,1.444,2.639,1.417c0.028,0,0.056-0.028,0.083,0c0.028,0.028,0,0.056-0.028,0.056
					C2.583,1.528,2.472,1.583,2.361,1.639c-0.028,0-0.056,0.028-0.028,0.056c0,0.028-0.028,0.028-0.028,0.028l0,0L2.278,1.694
					c0-0.028-0.028-0.028-0.056-0.056C2.111,1.583,2,1.5,1.889,1.444c-0.028,0-0.028-0.028-0.056-0.028c0,0,0,0-0.028,0V1.389
					c0-0.028,0.028-0.028,0.056-0.028s0.028,0.028,0.056,0.028C2.028,1.444,2.139,1.5,2.25,1.583c0-0.083,0-0.167,0-0.25
					c0-0.028-0.028-0.028-0.028-0.028c-0.111-0.083-0.25-0.139-0.361-0.222c0,0-0.028,0-0.028-0.028
					C1.806,1.028,1.806,1.028,1.833,1c0-0.028,0.028-0.028,0.056-0.028C1.917,1,1.944,1,2,1.028C2,1,2,0.972,2,0.944
					c0-0.028,0-0.028,0.028-0.028l0,0v0.028C2,1.056,2.083,1.111,2.167,1.167C2.194,1.194,2.222,1.194,2.25,1.222
					c0-0.083,0-0.167,0-0.25c0-0.028-0.028-0.028-0.028-0.028C2.167,0.917,2.139,0.889,2.083,0.861
					C2.028,0.833,1.944,0.778,1.889,0.75L1.861,0.722c-0.028-0.028-0.028-0.028,0-0.056s0.028-0.028,0.056,0
					c0.028,0.028,0.056,0.028,0.111,0.056c0-0.028,0-0.056,0-0.083c0-0.028,0-0.028,0.028-0.028l0,0v0.028
					C2.028,0.75,2.083,0.778,2.167,0.833C2.194,0.861,2.25,0.889,2.278,0.889c0-0.083,0-0.167,0-0.222
					c0-0.028-0.028-0.028-0.028-0.056C2.194,0.583,2.167,0.556,2.111,0.528C2.083,0.5,2.028,0.472,2,0.444c0,0-0.028,0-0.028-0.028
					C1.944,0.389,1.944,0.389,1.944,0.361c0.028-0.028,0.028-0.028,0.056,0C2.083,0.417,2.139,0.472,2.222,0.5
					c0.028,0,0.028,0.028,0.056,0.028c0-0.056,0-0.139,0-0.194c0-0.028-0.028-0.028-0.028-0.028
					C2.194,0.278,2.139,0.222,2.083,0.194C2.056,0.167,2.056,0.167,2.056,0.139c0.028-0.028,0.056-0.028,0.056,0
					C2.139,0.167,2.194,0.194,2.25,0.25c0-0.056,0-0.111,0-0.167c0-0.028,0-0.056,0.028-0.083h0.028c0.028,0.056,0,0.111,0,0.167
					c0,0.028,0,0.056,0,0.083c0.056-0.028,0.083-0.056,0.139-0.083c0.028-0.028,0.056-0.028,0.083,0
					c0.028,0.028,0,0.056-0.028,0.056C2.444,0.25,2.417,0.306,2.361,0.333c-0.028,0-0.028,0.028-0.028,0.056
					c0,0.056,0,0.139,0,0.194C2.417,0.528,2.5,0.472,2.583,0.444c0.028-0.028,0.056-0.056,0.083,0C2.694,0.5,2.639,0.5,2.611,0.528
					C2.583,0.556,2.528,0.583,2.5,0.611C2.472,0.639,2.417,0.667,2.389,0.694C2.361,0.722,2.361,0.722,2.361,0.75
					c0,0.056,0,0.139,0,0.194c0,0.028,0,0.028,0.028,0.028c0.083-0.056,0.167-0.083,0.25-0.139C2.667,0.806,2.667,0.778,2.667,0.75
					c0-0.028,0-0.056,0-0.056s0,0,0.028,0S2.722,0.75,2.722,0.778v0.028c0.028,0,0.028,0,0.056-0.028c0.028,0,0.056-0.028,0.056,0
					c0.028,0.028,0,0.056-0.028,0.056C2.694,0.889,2.611,0.944,2.5,1C2.389,1.056,2.333,1.111,2.361,1.25v0.028
					c0,0.028-0.028,0.056,0.028,0.056c0.028,0,0.083-0.056,0.083-0.083c0-0.028,0-0.028,0-0.056s0-0.028,0.028-0.028
					c0.028,0,0.028,0,0.028,0.028s0,0.028,0,0.056c0.028-0.028,0.056-0.028,0.111-0.056c0.028-0.028,0-0.056,0.028-0.083
					c0-0.028-0.028-0.056,0.028-0.056c0.028,0,0.028,0.028,0.028,0.056c0,0.028,0,0.028,0,0.056c0.056,0,0.083-0.028,0.111-0.056
					c0.028-0.028,0-0.056,0.028-0.083c0-0.028-0.028-0.056,0.028-0.056c0.028,0,0.028,0.028,0.028,0.056s0,0.083,0.056,0.028
					C2.806,0.944,2.806,0.944,2.833,0.944z"/>
				<path style="fill:#FCE9E3;" d="M2.778,2.083c0,0.056,0,0.139,0,0.194l0,0c0,0.083,0,0.139,0,0.222c0,0.028,0,0.056-0.056,0.028
					c0,0,0,0-0.028,0C2.583,2.472,2.472,2.389,2.361,2.333c-0.028-0.028-0.028-0.028,0-0.056c0.111-0.056,0.222-0.139,0.333-0.194
					c0,0,0,0,0.028,0C2.75,2.028,2.778,2.028,2.778,2.083z"/>
				<path style="fill:#FCE9E3;" d="M2.722,3.25c0.028,0,0.028,0.028,0.028,0.056c-0.028,0.028-0.028,0.028-0.056,0
					C2.611,3.25,2.528,3.222,2.472,3.167C2.417,3.139,2.389,3.111,2.306,3.083c0,0.083,0,0.167,0,0.222
					c0,0.028,0.028,0.028,0.028,0.028c0.111,0.083,0.25,0.139,0.361,0.222c0,0,0.028,0,0.028,0.028c0.028,0.028,0.028,0.028,0,0.056
					c0,0.028-0.028,0.028-0.056,0C2.639,3.611,2.611,3.611,2.556,3.583c0,0.028,0,0.056,0,0.083c0,0.028,0,0.028-0.028,0.028l0,0
					V3.667c0,0,0,0,0-0.028C2.556,3.556,2.5,3.528,2.444,3.472C2.389,3.444,2.361,3.417,2.306,3.389c0,0.111,0,0.194,0,0.306
					c0,0.028,0.028,0.028,0.028,0.028C2.389,3.75,2.417,3.778,2.472,3.806c0.056,0.028,0.139,0.083,0.194,0.139
					c0.028,0,0.028,0.028,0.028,0.028C2.722,4,2.722,4,2.722,4.028c-0.028,0.028-0.056,0.028-0.056,0C2.639,4,2.611,4,2.583,3.972
					c0,0.028,0,0.056,0,0.111c0,0,0,0.028-0.028,0.028c0,0-0.028,0-0.028-0.028V4.056C2.556,3.972,2.5,3.917,2.417,3.889
					c-0.028,0-0.028-0.028-0.028-0.028c-0.028,0-0.056-0.056-0.083-0.028c-0.028,0,0,0.056,0,0.083
					C2.278,4.028,2.333,4.139,2.444,4.194C2.5,4.222,2.556,4.278,2.583,4.306c0.028,0.028,0.056,0.028,0.028,0.083
					c-0.028,0.028-0.056,0-0.083,0c-0.083-0.056-0.167-0.111-0.25-0.167c-0.028,0.083,0,0.139,0,0.194
					c0,0.028,0.028,0.028,0.028,0.028C2.361,4.472,2.389,4.5,2.444,4.556C2.472,4.583,2.5,4.611,2.472,4.639
					c-0.028,0.028-0.056,0-0.083-0.028C2.361,4.583,2.306,4.556,2.278,4.528c-0.028,0.083,0,0.167-0.028,0.25H2.222
					C2.194,4.75,2.194,4.722,2.194,4.694c0-0.056,0-0.111,0-0.139C2.139,4.583,2.111,4.611,2.083,4.639
					C2.056,4.667,2.028,4.667,2,4.639C1.972,4.611,2,4.583,2.028,4.583c0.028,0,0.028-0.028,0.056-0.028
					C2.222,4.5,2.222,4.361,2.194,4.25C2.111,4.306,2.056,4.333,1.972,4.389c-0.028,0-0.028,0.028-0.056,0.028
					c-0.028,0.028-0.056,0.028-0.056,0c0-0.028,0-0.056,0.028-0.056c0.028-0.028,0.056-0.028,0.083-0.056
					c0.028,0,0.056-0.028,0.056-0.028C2.083,4.25,2.167,4.222,2.194,4.167c0.028-0.056,0-0.139,0-0.194s0-0.056-0.056-0.028
					C2.056,3.972,2,4.028,1.917,4.056C1.889,4.083,1.861,4.083,1.861,4.139c0,0.028,0,0.056,0,0.056s0,0-0.028,0
					c-0.028,0,0-0.056-0.028-0.083V4.083c-0.028,0-0.028,0-0.056,0.028c-0.028,0-0.056,0-0.056,0c-0.028-0.028,0-0.056,0.028-0.056
					c0.028,0,0.028-0.028,0.056-0.028C1.889,3.972,2,3.917,2.139,3.861c0.028-0.028,0.056-0.028,0.056-0.083
					c0-0.083,0-0.167,0-0.222C2.139,3.583,2.083,3.583,2.111,3.667c0,0.028,0,0.056-0.028,0.056c-0.028,0-0.028-0.028-0.028-0.056
					c0-0.028-0.028-0.028-0.056-0.028C1.944,3.667,1.917,3.694,1.917,3.75v0.028c0,0,0,0.028-0.028,0.028c0,0-0.028,0-0.028-0.028
					c0,0,0,0,0-0.028s0.028-0.056-0.028-0.083c-0.028,0-0.111,0.056-0.111,0.083c0,0.028,0,0.056,0,0.083
					c0,0.028,0,0.028-0.028,0.028c0,0-0.028,0-0.028-0.028c0-0.028,0-0.056,0-0.083c-0.028,0-0.028,0-0.056,0s-0.028,0-0.028,0
					c0-0.028,0-0.028,0-0.056c0,0,0.028-0.028,0.056-0.028C1.806,3.583,1.944,3.5,2.111,3.417c0.028-0.028,0.056-0.028,0.056-0.083
					c0-0.056,0-0.111,0-0.139s0-0.056-0.028-0.028C2.056,3.222,1.944,3.25,1.861,3.306c0,0-0.028,0-0.028,0.028
					c-0.028,0-0.056,0.028-0.056,0c0-0.028,0-0.028,0.028-0.056l0,0C1.889,3.25,1.944,3.222,2.028,3.167
					c0.028-0.028,0.083-0.028,0.111-0.056c0.028,0,0.056-0.028,0.056-0.056c0,0,0-0.028,0.028-0.028l0,0
					c0.028,0,0.028,0,0.028,0.028c0,0.028,0.028,0.056,0.056,0.056C2.417,3.167,2.528,3.25,2.639,3.306
					C2.694,3.25,2.694,3.25,2.722,3.25z"/>
				<path style="fill:#FCE9E3;" d="M2.694,2.556c0.056,0.028,0.056,0.056,0,0.083c-0.111,0.083-0.25,0.139-0.361,0.222
					c-0.028,0.028-0.056,0-0.056-0.028c0-0.056,0-0.139,0-0.194l0,0c0-0.056,0-0.139,0-0.194c0-0.028,0.028-0.056,0.056-0.028
					C2.444,2.417,2.583,2.472,2.694,2.556z"/>
				<path style="fill:#FCE9E3;" d="M2.694,2c0,0,0,0.028-0.028,0.028c-0.111,0.056-0.25,0.139-0.361,0.194
					c-0.028,0.028-0.056,0-0.056-0.028c0-0.139,0-0.278,0-0.417c0-0.028,0-0.028,0.028-0.028h0.028C2.444,1.833,2.556,1.889,2.694,2
					C2.694,1.972,2.694,1.972,2.694,2z"/>
				<path style="fill:#FCE9E3;" d="M2.25,2.778c0,0.028,0,0.056-0.028,0.056c0,0-0.028,0-0.056-0.028
					C2.056,2.75,1.944,2.667,1.833,2.611c-0.028,0-0.028-0.028-0.028-0.028C1.778,2.556,1.778,2.556,1.778,2.528h0.083
					c0.028,0,0.056,0,0.056-0.028h0.028c0.083-0.028,0.167-0.083,0.222-0.111C2.222,2.361,2.25,2.361,2.25,2.444
					C2.25,2.528,2.25,2.667,2.25,2.778z"/>
				<path style="fill:#FCE9E3;" d="M2.222,2.194c0,0.056-0.028,0.056-0.056,0.028C2.083,2.194,2.028,2.139,1.944,2.111l0,0
					c0,0,0,0-0.028,0c0,0,0,0-0.028,0l0,0C1.861,2.083,1.833,2.083,1.778,2.056c0-0.028,0-0.028,0-0.028s0,0,0.028-0.028
					c0.111-0.083,0.25-0.139,0.361-0.222h0.028c0.028,0,0.028,0.028,0.028,0.056C2.222,1.917,2.222,2.056,2.222,2.194z"/>
				<path style="fill:#FCE9E3;" d="M2.167,2.25c0.028,0.028,0.028,0.028,0,0.056C2.083,2.361,2,2.417,1.944,2.472
					c0,0-0.028,0-0.028,0.028c-0.028,0-0.028,0-0.056,0.028H1.778c0-0.028,0-0.056,0-0.083c0-0.111,0-0.25,0-0.361
					c0-0.028,0-0.056,0.028-0.056c0.028,0.028,0.056,0.028,0.083,0.056c0,0,0,0,0.028,0l0,0c0,0,0,0.028,0.028,0
					c0,0,0,0.028,0.028,0C2,2.111,2.028,2.111,2.056,2.139C2.056,2.194,2.111,2.222,2.167,2.25z"/>
				<path style="fill:#FCE9E3;" d="M1.944,2.111L1.944,2.111L1.944,2.111z"/>
				<path style="fill:#FCE9E3;" d="M1.917,2.111L1.917,2.111L1.917,2.111z"/>
				<path style="fill:#FCE9E3;" d="M1.917,2.111L1.917,2.111L1.917,2.111z"/>
				<path style="fill:#FCE9E3;" d="M1.889,2.5C1.917,2.5,1.917,2.5,1.889,2.5c0,0.028-0.028,0.028-0.056,0.028
					C1.861,2.5,1.889,2.5,1.889,2.5z"/>
				<polygon style="fill:#FCE9E3;" points="1.889,2.083 1.889,2.083 1.889,2.083 				"/>
				<path style="fill:#FCE9E3;" d="M1.889,2.083C1.889,2.083,1.861,2.083,1.889,2.083c-0.028,0-0.083-0.028-0.111-0.028
					c0,0,0,0,0-0.028C1.806,2.056,1.861,2.056,1.889,2.083z"/>
				<path style="fill:#FCE9E3;" d="M1.722,2.611c0,0.028,0,0.028,0,0.028C1.694,2.667,1.694,2.667,1.694,2.694
					c0,0.139,0,0.25,0.028,0.389c0,0.028,0,0.028,0,0.056c0,0.028,0,0.028,0,0.028s0,0-0.028,0c-0.028,0-0.028-0.028-0.028-0.056
					c0-0.056,0-0.139,0-0.194c0-0.083,0-0.167,0-0.25C1.611,2.694,1.528,2.75,1.472,2.778c-0.028,0,0,0.028,0,0.056
					c0,0.139,0,0.278,0,0.444c0,0.028,0,0.028,0,0.056S1.444,3.361,1.417,3.361c-0.028,0-0.028-0.028-0.028-0.028
					c0-0.028,0-0.083,0-0.139C1.361,3.222,1.333,3.222,1.306,3.25c0,0-0.028,0.028-0.056,0l0,0c0,0,0-0.028,0.028-0.028
					C1.389,3.194,1.389,3.083,1.389,3c0-0.139,0-0.111-0.111-0.056C1.167,3,1.111,3.083,1.139,3.194c0,0.028,0,0.028,0,0.056
					c0,0.083,0,0.167,0,0.25c0,0.028,0,0.056-0.056,0.056c-0.028,0-0.056-0.028-0.056-0.056c0-0.028,0-0.056,0-0.083
					C1,3.417,0.972,3.444,0.944,3.444H0.917l0,0c0,0,0-0.028,0.028-0.028l0,0c0.111-0.028,0.111-0.111,0.111-0.194
					c0-0.028,0-0.083,0-0.111C0.972,3.167,0.917,3.194,0.861,3.25c-0.028,0,0,0.028,0,0.056c0,0.056,0,0.111,0,0.167l0,0
					c0,0.028,0,0.083,0,0.111c0,0.028,0,0.028,0,0.056c0,0.028,0,0.056-0.028,0.056S0.806,3.667,0.806,3.639
					c0-0.056,0-0.139,0-0.194c0-0.028,0-0.083,0-0.139C0.75,3.333,0.694,3.361,0.639,3.417c-0.028,0-0.028,0.028-0.028,0.056
					c0,0.056,0,0.111-0.028,0.167c0,0.028,0,0.056-0.056,0.056S0.5,3.667,0.5,3.639c0-0.056,0.028-0.083,0-0.139
					C0.444,3.528,0.417,3.556,0.361,3.583c-0.028,0-0.028,0.028-0.056,0.028c-0.028,0-0.028,0.028-0.056,0
					c0-0.028,0-0.028,0.028-0.056C0.306,3.528,0.361,3.5,0.389,3.472l0.028-0.028C0.389,3.417,0.333,3.417,0.306,3.389
					c-0.028,0-0.083-0.028-0.056-0.056c0.028-0.056,0.056-0.028,0.083,0c0.056,0.028,0.111,0.028,0.139,0.056
					c0.028,0,0.028,0,0.056,0c0.056-0.028,0.111-0.056,0.167-0.111c-0.083-0.056-0.167-0.083-0.25-0.111
					c-0.028,0-0.028-0.028-0.056-0.028c-0.028,0-0.028-0.028-0.028-0.056c0-0.028,0.028-0.028,0.028-0.028h0.028
					C0.472,3.083,0.5,3.111,0.556,3.111c0.056,0.028,0.083,0.028,0.139,0.056c0.056,0.028,0.083,0.028,0.139,0
					C0.889,3.139,0.917,3.111,1,3.056C0.889,3,0.806,2.944,0.722,2.889c-0.028-0.028-0.028,0-0.056,0.028
					c-0.028,0-0.056,0.056-0.083,0.028C0.556,2.917,0.611,2.917,0.639,2.889c0,0,0,0,0.028-0.028c0-0.028-0.028-0.028-0.056-0.028
					C0.583,2.806,0.583,2.806,0.583,2.778s0.028-0.028,0.056,0c0,0,0.028,0,0.028,0.028c0.139,0.083,0.25,0.139,0.389,0.222
					c0.028,0.028,0.056,0.028,0.083,0c0.056-0.056,0.139-0.083,0.194-0.111c-0.028-0.028-0.083-0.056-0.111,0
					c0,0-0.028,0-0.028,0.028c-0.028,0-0.028,0-0.028,0V2.917c0.028,0,0.028-0.028,0.056-0.028C1.167,2.833,1.111,2.806,1.056,2.861
					c0,0-0.028,0-0.028,0.028H1V2.861c0.028-0.028,0.056-0.028,0.083-0.056C1.056,2.778,1,2.778,0.972,2.75
					C0.944,2.722,0.917,2.778,0.889,2.778c-0.028,0-0.056,0.056-0.083,0.028C0.778,2.778,0.833,2.778,0.861,2.75l0.028-0.028
					c0-0.028-0.028-0.028-0.028-0.028c-0.028,0-0.028-0.028,0-0.028c0-0.028,0.028-0.028,0.056,0
					c0.028,0.028,0.056,0.028,0.111,0.056c0.139,0.083,0.25,0.139,0.389,0.222c0.028,0.028,0.056,0.028,0.083,0
					c0.056-0.028,0.111-0.083,0.167-0.111C1.611,2.806,1.556,2.778,1.5,2.722C1.444,2.694,1.389,2.667,1.333,2.611
					c-0.028,0-0.056-0.028-0.028-0.056c0,0,0-0.028,0.028-0.028c0,0,0.028,0,0.056,0C1.5,2.583,1.611,2.667,1.722,2.722
					c0.028,0,0.028,0.028,0.056,0C1.694,2.583,1.694,2.583,1.722,2.611L1.722,2.611z"/>
				<path style="fill:#FCE9E3;" d="M1.694,1.944c0.028,0,0.028,0.028,0,0.056c0,0.028-0.028,0.028-0.028,0
					C1.639,1.972,1.611,2,1.583,2.028C1.472,2.111,1.361,2.167,1.25,2.25L1.222,2.278H1.194c0,0-0.028,0-0.028-0.028
					c-0.028-0.028,0-0.056,0.028-0.056C1.278,2.139,1.389,2.083,1.472,2C1.5,1.972,1.528,1.972,1.556,1.944
					C1.472,1.917,1.417,1.861,1.333,1.833c-0.028,0-0.028,0-0.056,0C1.167,1.889,1.028,1.944,0.917,2H0.889
					C0.861,2.028,0.833,2.028,0.806,2c-0.028-0.028,0-0.056,0.028-0.056s0.056-0.028,0.083-0.056
					C0.889,1.861,0.861,1.861,0.861,1.833L0.833,1.806l0,0h0.028c0.083,0.083,0.167,0.056,0.222,0
					C1.111,1.778,1.139,1.778,1.194,1.75C1.111,1.694,1.056,1.667,0.972,1.639c-0.028,0-0.028,0-0.056,0
					C0.861,1.667,0.833,1.694,0.778,1.722C0.694,1.75,0.639,1.806,0.556,1.833c-0.028,0-0.028,0.028-0.056,0.028
					c-0.028,0-0.056,0-0.056-0.028s0-0.028,0.028-0.056C0.5,1.75,0.528,1.75,0.583,1.722C0.556,1.694,0.528,1.694,0.5,1.667
					L0.472,1.639l0,0H0.5c0.083,0.083,0.167,0.028,0.222-0.028C0.75,1.583,0.778,1.583,0.833,1.555
					C0.75,1.528,0.694,1.472,0.611,1.444c-0.028,0-0.028,0-0.056,0C0.5,1.472,0.444,1.5,0.417,1.528
					C0.361,1.555,0.333,1.583,0.278,1.611c-0.028,0-0.028,0.028-0.056,0.028c-0.028,0-0.028-0.028-0.028-0.028
					c0-0.028,0-0.028,0.028-0.056c0.083-0.028,0.167-0.083,0.222-0.111c0,0,0.028,0,0.028-0.028c0-0.028-0.028-0.028-0.028-0.028
					c-0.083-0.056-0.167-0.083-0.278,0C0.139,1.417,0.111,1.417,0.083,1.417c-0.028,0-0.056,0-0.056-0.028
					C0,1.361,0.028,1.333,0.056,1.333C0.111,1.305,0.167,1.278,0.222,1.25C0.167,1.194,0.083,1.167,0,1.139V1.111
					c0.028,0,0.056,0,0.083,0C0.139,1.139,0.194,1.167,0.25,1.194c0-0.056,0-0.083,0-0.139c0-0.028,0-0.083,0.028-0.083
					c0.056,0,0.056,0.028,0.056,0.056c0,0.056,0.028,0.111,0.028,0.167c0,0.028,0,0.028,0.028,0.028
					C0.444,1.25,0.5,1.278,0.583,1.333c0-0.111,0-0.194-0.028-0.306c0-0.028,0-0.056,0.028-0.056c0.056,0,0.056,0.028,0.056,0.056
					s0,0.028,0,0.056c0,0.083,0,0.167,0,0.25c0,0.028,0.028,0.056,0.056,0.056C0.75,1.417,0.806,1.444,0.861,1.472
					c0.028,0,0.028,0,0.028-0.028c0-0.083,0-0.194,0-0.278c0-0.028-0.028-0.028-0.056-0.056S0.778,1.083,0.778,1.055
					c0,0,0,0,0-0.028c0.028-0.028,0.056,0,0.083,0.028h0.028c0-0.028,0-0.028,0-0.056c0-0.028,0-0.056,0.028-0.056
					c0.028,0,0.028,0.028,0.028,0.056c0,0.056,0,0.139,0,0.194c0,0.083,0,0.194,0,0.278c0,0.028,0,0.056,0.028,0.056
					c0.056,0.028,0.111,0.056,0.167,0.083c0.028,0.028,0.056,0.028,0.056-0.028s0-0.083-0.056-0.083c0,0-0.028,0-0.028-0.028
					c-0.028,0-0.028-0.028,0-0.056c0-0.028,0.028,0,0.056,0c0.056,0.028,0.056,0,0.056-0.028c0-0.056-0.028-0.083-0.083-0.111
					c-0.028,0-0.056-0.028-0.028-0.056c0.028-0.028,0.028,0,0.056,0L1.194,1.25h0.028c0.028-0.028,0-0.111-0.028-0.139
					C1.167,1.083,1.111,1.083,1.139,1.055c0.028-0.028,0.056,0,0.083,0.028c0.028,0,0.028,0.028,0.056-0.028
					c0-0.028,0-0.028,0.028-0.028s0.028,0.028,0.028,0.056c0,0.111-0.028,0.25-0.028,0.361c0,0.056,0,0.139-0.028,0.194
					c0,0.028,0,0.056,0.028,0.056C1.361,1.722,1.417,1.75,1.472,1.778C1.5,1.805,1.528,1.805,1.528,1.75c0-0.111,0-0.194,0-0.306
					c0-0.028,0-0.028,0-0.056s0-0.056,0.028-0.056l0,0c0.028,0,0.028,0.028,0.028,0.056c0,0.083,0,0.194,0,0.278
					c0,0.028,0,0.083,0,0.111C1.667,1.889,1.667,1.917,1.694,1.944z"/>
			</g>
		</g>
	</g>
</g>
<g id="Layer_1">
</g>
</svg>
